<?xml version="1.0" encoding="UTF-8" standalone="no"?>
<svg width="128px" height="128px" viewBox="0 0 128 128" version="1.1" xmlns="http://www.w3.org/2000/svg" xmlns:xlink="http://www.w3.org/1999/xlink">
    <!-- Generator: Sketch 41 (35326) - http://www.bohemiancoding.com/sketch -->
    <title>Group</title>
    <desc>Created with Sketch.</desc>
    <defs></defs>
    <g id="Page-1" stroke="none" stroke-width="1" fill="none" fill-rule="evenodd">
        <g id="One-Click-Page" transform="translate(-16.000000, -304.000000)">
            <g id="Group" transform="translate(16.000000, 304.000000)">
                <rect id="Rectangle" fill="#D42C69" x="0" y="0" width="128" height="128"></rect>
                <polygon id="Shape" fill="#FFFFFF" points="17.5972851 65.1428572 17.5972851 24 29.5429864 24 41.4886878 39.1260504 53.4343893 24 65.3800905 24 65.3800905 65.1428572 53.4343893 65.1428572 53.4343893 41.5462185 41.4886878 56.672269 29.5429864 41.5462185 29.5429864 65.1428572"></polygon>
                <polygon id="Shape" fill="#FFFFFF" points="92.2579187 65.1428572 74.3393665 45.1764706 86.2850678 45.1764706 86.2850678 24 98.2307693 24 98.2307693 45.1764706 110.176471 45.1764706"></polygon>
                <path d="M34.5926011,91.5641085 L40.339614,93.3012408 C39.9535826,94.9129217 39.3455924,96.2591858 38.515625,97.3400735 C37.6856576,98.4209613 36.6554519,99.2364403 35.424977,99.7865349 C34.1945021,100.33663 32.628686,100.611673 30.7274816,100.611673 C28.4209444,100.611673 26.5366571,100.276313 25.0745634,99.6055836 C23.6124697,98.9348542 22.3506487,97.7550636 21.2890625,96.0661765 C20.2274763,94.3772893 19.6966912,92.2155463 19.6966912,89.5808824 C19.6966912,86.0679971 20.6303905,83.3682309 22.4978171,81.4815028 C24.3652437,79.5947746 27.0071061,78.6514246 30.4234835,78.6514246 C33.0967505,78.6514246 35.1981771,79.1918604 36.7278263,80.2727482 C38.2574755,81.3536359 39.3938382,83.0135458 40.1369485,85.2525276 L34.3465074,86.5409007 C34.1438409,85.8942982 33.9315268,85.4214169 33.7095588,85.1222426 C33.342829,84.6204019 32.8940743,84.2343764 32.3632813,83.9641544 C31.8324882,83.6939325 31.2389739,83.5588235 30.5827206,83.5588235 C29.0964999,83.5588235 27.9577245,84.1571631 27.1663603,85.3538603 C26.5680117,86.2417324 26.2688419,87.6362497 26.2688419,89.537454 C26.2688419,91.8922452 26.6259155,93.5063146 27.3400735,94.3797105 C28.0542315,95.2531064 29.0578979,95.6897978 30.3511029,95.6897978 C31.6057048,95.6897978 32.5538801,95.3375495 33.1956572,94.6330423 C33.8374343,93.9285351 34.3030776,92.9055674 34.5926011,91.5641085 L34.5926011,91.5641085 Z M57.3345588,79.0133272 L63.8777574,79.0133272 L63.8777574,91.6654412 C63.8777574,92.920043 63.6823319,94.1046589 63.2914752,95.2193244 C62.9006185,96.3339899 62.2878029,97.3087045 61.4530101,98.1434972 C60.6182173,98.97829 59.7424219,99.5645663 58.8255974,99.9023438 C57.551694,100.375232 56.0220678,100.611673 54.2366728,100.611673 C53.204039,100.611673 52.0773269,100.539293 50.8565028,100.394531 C49.6356786,100.249769 48.6151236,99.962663 47.794807,99.5332031 C46.9744904,99.1037433 46.2241532,98.4933404 45.543773,97.7019761 C44.8633927,96.9106119 44.3977494,96.0951329 44.146829,95.2555147 C43.7414961,93.904405 43.5388327,92.7077258 43.5388327,91.6654412 L43.5388327,79.0133272 L50.0820313,79.0133272 L50.0820313,91.9694393 C50.0820313,93.1275334 50.402915,94.0322808 51.0446921,94.6837086 C51.6864692,95.3351365 52.5767406,95.6608456 53.7155331,95.6608456 C54.8446748,95.6608456 55.7301209,95.3399618 56.371898,94.6981847 C57.0136751,94.0564076 57.3345588,93.1468349 57.3345588,91.9694393 L57.3345588,79.0133272 Z M68.3074449,100.235294 L68.3074449,79.0133272 L79.2369026,79.0133272 C81.2635671,79.0133272 82.8124946,79.1870387 83.8837316,79.5344669 C84.9549686,79.8818951 85.8187008,80.5260753 86.474954,81.4670267 C87.1312073,82.4079781 87.459329,83.5539914 87.459329,84.9051011 C87.459329,86.0824967 87.2084124,87.0982264 86.7065717,87.9523208 C86.2047309,88.8064151 85.5147103,89.4988484 84.636489,90.0296415 C84.0767435,90.367419 83.3095177,90.6472875 82.3347886,90.8692555 C83.1165021,91.1298267 83.6858898,91.3903939 84.0429688,91.6509651 C84.2842383,91.8246792 84.634074,92.1962288 85.0924862,92.765625 C85.5508984,93.3350212 85.8573062,93.7741253 86.0117188,94.0829504 L89.1819853,100.235294 L81.7702206,100.235294 L78.2670037,93.75 C77.8230676,92.9103818 77.4273914,92.3651207 77.0799632,92.1142004 C76.6070748,91.7860737 76.0714644,91.6220129 75.4731158,91.6220129 L74.8940717,91.6220129 L74.8940717,100.235294 L68.3074449,100.235294 Z M74.8940717,87.6121324 L77.6590074,87.6121324 C77.9581816,87.6121324 78.53722,87.515626 79.3961397,87.3226103 C79.830425,87.2357532 80.1850859,87.0137886 80.4601333,86.6567096 C80.7351806,86.2996306 80.8727022,85.8894784 80.8727022,85.4262408 C80.8727022,84.7410352 80.6555628,84.2150754 80.2212776,83.8483456 C79.7869923,83.4816158 78.9715133,83.2982537 77.7748162,83.2982537 L74.8940717,83.2982537 L74.8940717,87.6121324 Z M91.2810202,79.0133272 L97.8386949,79.0133272 L97.8386949,95.009421 L108.0733,95.009421 L108.0733,100.235294 L91.2810202,100.235294 L91.2810202,79.0133272 Z" id="CURL" fill="#FFFFFF"></path>
            </g>
        </g>
    </g>
</svg>