<?xml version="1.0" encoding="UTF-8" standalone="no"?>
<svg width="128px" height="128px" viewBox="0 0 128 128" version="1.1" xmlns="http://www.w3.org/2000/svg" xmlns:xlink="http://www.w3.org/1999/xlink">
    <!-- Generator: Sketch 41 (35326) - http://www.bohemiancoding.com/sketch -->
    <title>OAI Logo Gray</title>
    <desc>Created with Sketch.</desc>
    <defs></defs>
    <g id="Page-1" stroke="none" stroke-width="1" fill="none" fill-rule="evenodd">
        <g id="One-Click-Page" transform="translate(-160.000000, -160.000000)">
            <g id="OAI-Logo-Gray" transform="translate(160.000000, 160.000000)">
                <rect id="Rectangle" fill="#8BD143" x="0" y="0" width="128" height="128"></rect>
                <path d="M30.5841383,27.6295602 C31.8026581,27.2212116 33.1067902,27 34.4625114,27 C41.2081843,27 46.6766327,32.476684 46.6766327,39.2325161 C46.6766327,45.9883482 41.2081843,51.4650322 34.4625114,51.4650322 C27.7168385,51.4650322 22.24839,45.9883482 22.24839,39.2325161 C22.24839,36.5801576 23.09128,34.1249631 24.5234297,32.1209448 L26.3045442,33.2848513 C25.0895425,34.9535377 24.372585,37.0091737 24.372585,39.2325161 C24.372585,44.8134209 28.889999,49.3376381 34.4625114,49.3376381 C40.0350238,49.3376381 44.5524377,44.8134209 44.5524377,39.2325161 C44.5524377,33.6516114 40.0350238,29.1273941 34.4625114,29.1273941 C33.4129365,29.1273941 32.4007915,29.2878916 31.4492104,29.5857176 L30.5841383,27.6295602 L30.5841383,27.6295602 Z" id="Combined-Shape" fill="#FFFFFF"></path>
                <path d="M46.2440042,84.4396408 L37.1213854,84.4396408 C35.6549347,84.4396408 34.4661416,85.6302243 34.4661416,87.0988835 C34.4661416,88.5675427 35.6549347,89.7581261 37.1213854,89.7581261 L48.7512684,89.7581261 L53.4970822,99.8250912 C54.1857796,101.285977 55.9265802,101.911119 57.3852693,101.221384 C58.8439583,100.531649 59.4681599,98.7882271 58.7794625,97.3273414 L40.9927001,59.5975187 C39.9304825,57.34431 36.7214649,57.3678591 35.69233,59.6364149 L18.5761205,97.3662376 C17.9088726,98.8370739 18.5585168,100.571148 20.0271413,101.239401 C21.4957659,101.907654 23.2272326,101.257031 23.8944804,99.7861948 L38.414427,67.831303 L46.2440042,84.4396408 L46.2440042,84.4396408 Z" id="Combined-Shape" fill="#FFFFFF"></path>
                <path d="M81.7299471,57.8472151 C89.6468978,57.8494319 96.0641669,64.2777329 96.0641669,72.2071247 C96.0641669,80.1378841 89.6446839,86.5670349 81.7258505,86.5670349 C80.2593998,86.5670349 79.0706067,85.3764515 79.0706067,83.9077923 C79.0706067,82.4391331 80.2593998,81.2485497 81.7258505,81.2485497 C86.7117827,81.2485497 90.7536793,77.2005659 90.7536793,72.2071247 C90.7536793,67.2136836 86.7117827,63.1656998 81.7258505,63.1656998 L70.0427779,63.1656998 L70.0427779,98.7995511 C70.0427779,100.26821 68.8539848,101.458794 67.3875341,101.458794 C65.9210835,101.458794 64.7322904,100.26821 64.7322904,98.7995511 L64.7322904,60.5064572 C64.7322904,59.037798 65.9210835,57.8472145 67.3875341,57.8472145 L81.7281842,57.8472145 C81.7287719,57.8472145 81.7293595,57.8472147 81.7299471,57.8472151 L81.7299471,57.8472151 Z" id="Combined-Shape" fill="#FFFFFF"></path>
                <path d="M109.340386,60.5064572 C109.340386,59.037798 108.151593,57.8472145 106.685142,57.8472145 C105.218691,57.8472145 104.029898,59.037798 104.029898,60.5064572 L104.029898,98.7995511 C104.029898,100.26821 105.218691,101.458794 106.685142,101.458794 C108.151593,101.458794 109.340386,100.26821 109.340386,98.7995511 L109.340386,60.5064572 L109.340386,60.5064572 Z" id="Path-4" fill="#FFFFFF"></path>
                <polygon id="Path-7" fill="#FFFFFF" points="71.1048754 27 71.1048754 51.4650322 84.912143 51.4650322 84.912143 49.3376381 73.2290704 49.3376381 73.2290704 39.7643646 84.3810943 39.7643646 84.3810943 37.6369705 73.2290704 37.6369705 73.2290704 29.1273941 84.912143 29.1273941 84.912143 27"></polygon>
                <path d="M92.3468256,30.0055536 L106.647797,51.4650322 L109.340386,51.4650322 L109.340386,28.0636971 C109.340386,27.4762334 108.864868,27 108.278288,27 C107.691708,27 107.216191,27.4762334 107.216191,28.0636971 L107.216614,48.4866813 L92.9152191,27.001688 L90.2226306,27.001688 L90.2226306,50.4013352 C90.2226306,50.9887988 90.6981479,51.4650322 91.2847281,51.4650322 C91.8713083,51.4650322 92.3468256,50.9887988 92.3468256,50.4013352 L92.3468256,30.0055536 L92.3468256,30.0055536 Z" id="Path-8" fill="#FFFFFF"></path>
                <path d="M60.4839003,37.6381378 L60.4839003,37.6369705 C62.8302214,37.6369705 64.7322904,35.732037 64.7322904,33.3821823 C64.7322904,31.0323277 62.8302214,29.1273941 60.4839003,29.1273941 L60.4839003,27 C64.0033819,27 66.8564854,29.8574004 66.8564854,33.3821823 C66.8564854,36.9069643 64.0033819,39.7643646 60.4839003,39.7643646 L60.4839003,38.8792289 L60.4836625,39.7655319 L54.1116484,39.7631972 L54.1122191,37.6358032 L60.4839003,37.6381378 L60.4839003,37.6381378 Z M54.1113153,29.1273941 L60.4839003,29.1273941 L60.4839003,27 L51.9871203,27 L51.9871203,50.4013352 C51.9871203,50.9887988 52.4626376,51.4650322 53.0492178,51.4650322 C53.635798,51.4650322 54.1113153,50.9887988 54.1113153,50.4013352 L54.1113153,29.1273941 L54.1113153,29.1273941 Z" id="Combined-Shape" fill="#FFFFFF"></path>
            </g>
        </g>
    </g>
</svg>