<?xml version="1.0" encoding="UTF-8" standalone="no"?>
<svg width="128px" height="128px" viewBox="0 0 128 128" version="1.1" xmlns="http://www.w3.org/2000/svg" xmlns:xlink="http://www.w3.org/1999/xlink">
    <!-- Generator: Sketch 41 (35326) - http://www.bohemiancoding.com/sketch -->
    <title>paw-square-logo</title>
    <desc>Created with Sketch.</desc>
    <defs></defs>
    <g id="Page-1" stroke="none" stroke-width="1" fill="none" fill-rule="evenodd">
        <g id="One-Click-Page" transform="translate(-16.000000, -16.000000)">
            <g id="paw-square-logo" transform="translate(16.000000, 16.000000)">
                <rect id="Rectangle" fill="#2F78CD" x="0" y="0" width="128" height="128"></rect>
                <path d="M99.8854659,90.1926183 C98.8506773,86.1720728 96.5662291,86.6782545 95.0538886,86.8593455 C94.4581843,86.9308 93.9438126,86.9929817 93.6492579,86.8369817 C92.5309389,85.9408 89.2765485,78.4168 86.8992274,70.6069817 C84.8038221,63.7244362 89.7282723,57.5608 89.7282723,46.3157091 C89.7282723,25.8295273 73.3464107,16.2480727 73.3464107,16.2480727 C73.3464107,16.2480727 76.1930411,26.2146182 75.0719744,30.2046182 C75.0719744,30.2046182 72.7259773,24.2362546 68.8951169,22.0353454 C69.9881567,34.5366182 65.9968298,37.0986182 55.1669961,39.3137091 C59.2259168,42.3257091 63.1501997,43.2513454 70.7613632,43.2513454 C85.7798094,43.2513454 91.5390147,55.1646183 79.6458163,70.0249817 C83.2848867,78.3775272 89.9387469,89.3275272 90.7289892,90.1495272 C92.5727043,92.0662545 96.761317,91.9724362 99.4150575,91.0408 C99.7805032,90.9126183 99.9766901,90.5455272 99.8854659,90.1926183" id="Fill-1" fill="#FFFFFF"></path>
                <path d="M43.2256578,89.5937089 C44.8182319,92.6569817 49.8119244,92.2380728 57.827551,91.2998911 C61.6457722,90.8537089 65.9882569,90.3464362 70.4417491,90.3944362 C64.366557,71.0029817 71.3484942,68.2566183 76.0272988,60.5493455 C82.3646227,50.1104364 75.3425692,46.8437091 70.8286271,46.8437091 C68.1276257,66.7326183 37.6549457,54.1304362 43.2256578,89.5937089" id="Fill-3" fill="#FFFFFF"></path>
                <path d="M41.7923411,111.479036 C46.4068493,111.479036 51.8736979,110.701764 57.6609298,109.879764 C69.9399071,108.134855 83.7130901,106.177764 96.3058563,110.258309 C87.3301789,91.4843091 71.2577099,93.3644909 58.2049768,94.8906726 C50.5778768,95.7830364 43.9262146,96.5608547 40.9064786,92.3652181 C34.7103872,92.7208547 29.8084683,96.7735819 29.8084683,101.703945 C29.8084683,107.002491 35.2961994,111.479036 41.7923411,111.479036" id="Fill-5" fill="#FFFFFF"></path>
            </g>
        </g>
    </g>
</svg>