<?xml version="1.0" encoding="UTF-8" standalone="no"?>
<svg width="128px" height="128px" viewBox="0 0 128 128" version="1.1" xmlns="http://www.w3.org/2000/svg" xmlns:xlink="http://www.w3.org/1999/xlink">
    <!-- Generator: Sketch 41 (35326) - http://www.bohemiancoding.com/sketch -->
    <title>postman-square-logo</title>
    <desc>Created with Sketch.</desc>
    <defs></defs>
    <g id="Page-1" stroke="none" stroke-width="1" fill="none" fill-rule="evenodd">
        <g id="One-Click-Page" transform="translate(-160.000000, -16.000000)">
            <g id="postman-square-logo" transform="translate(160.000000, 16.000000)">
                <rect id="Rectangle" fill="#EA6E30" x="0" y="0" width="128" height="128"></rect>
                <polygon id="Fill-16" fill="#FFFFFF" points="33.8167832 109.605173 17 110.187886 25.6205315 101.423019"></polygon>
                <path d="M110.099793,66.1326802 C106.975429,90.4931838 84.6926881,107.704037 60.3362126,104.576317 C35.9757091,101.451282 18.7648559,79.1692117 21.8892196,54.8100508 C25.0155972,30.4515613 47.2936392,13.2386942 71.6561566,16.3670858 C96.0153175,19.4907781 113.230199,41.774862 110.099793,66.1326802" id="Fill-18" fill="#FFFFFF"></path>
                <path d="M77.3335161,47.8297767 C80.2558098,50.9360145 77.3717818,58.2803501 77.3717818,58.2803501 C77.3717818,58.2803501 74.5213203,68.6637907 58.2013203,82.1286299 L55.1548308,79.138532 L75.8713622,57.9648257 L76.2721455,57.4244061 C76.8233063,56.5261683 77.2798098,47.7693571 77.3335161,47.8297767" id="Fill-21" fill="#FFFFFF"></path>
                <path d="M77.3335161,47.8297767 C80.2558098,50.9360145 77.3717818,58.2803501 77.3717818,58.2803501 C77.3717818,58.2803501 74.5213203,68.6637907 58.2013203,82.1286299 L55.1548308,79.138532 L75.8713622,57.9648257 L76.2721455,57.4244061 C76.8233063,56.5261683 77.2798098,47.7693571 77.3335161,47.8297767 L77.3335161,47.8297767 L77.3335161,47.8297767 L77.3335161,47.8297767 L77.3335161,47.8297767 Z" id="Stroke-23" stroke="#EA6E30" stroke-width="1.918"></path>
                <path d="M50.6799552,74.736697 L77.2900811,47.7533124 C78.6407944,49.3571166 78.9274517,51.0851166 78.5360671,53.5475501 C78.272235,55.2520536 75.3271161,58.659718 75.3271161,58.659718 L55.1550322,79.1385992" id="Fill-25" fill="#FFFFFF"></path>
                <path d="M50.6799552,74.736697 L77.2900811,47.7533124 C78.6407944,49.3571166 78.9274517,51.0851166 78.5360671,53.5475501 C78.272235,55.2520536 75.3271161,58.659718 75.3271161,58.659718 L55.1550322,79.1385992" id="Stroke-27" stroke="#EA6E30" stroke-width="1.201"></path>
                <path d="M77.3335161,47.8494466 L50.6797538,74.7368313 L50.7334601,74.6844676 L50.7233902,74.6884956 L44.1101315,68.1725795 C57.9019077,51.0208033 66.8178238,47.8219222 66.8178238,47.8219222 C66.8178238,47.8219222 72.6221315,45.5561879 76.7628867,47.3143977 C77.0810965,47.4849152 77.2193902,47.5836005 77.3335161,47.8494466" id="Fill-29" fill="#FFFFFF"></path>
                <path d="M77.3335161,47.8494466 L50.6797538,74.7368313 L50.7334601,74.6844676 L50.7233902,74.6884956 L44.1101315,68.1725795 C57.9019077,51.0208033 66.8178238,47.8219222 66.8178238,47.8219222 C66.8178238,47.8219222 72.6221315,45.5561879 76.7628867,47.3143977 C77.0810965,47.4849152 77.2193902,47.5836005 77.3335161,47.8494466 L77.3335161,47.8494466 L77.3335161,47.8494466 L77.3335161,47.8494466 L77.3335161,47.8494466 Z" id="Stroke-31" stroke="#EA6E30" stroke-width="1.918"></path>
                <path d="M58.2012531,82.1285628 C51.842428,87.3655978 43.7045818,95.5920593 32.6430993,101.329905 L35.1035189,111.847612 L24.6750993,101.576283 L50.6796867,74.7365627" id="Fill-33" fill="#FFFFFF"></path>
                <path d="M58.2012531,82.1285628 C51.842428,87.3655978 43.7045818,95.5920593 32.6430993,101.329905 L35.1035189,111.847612 L24.6750993,101.576283 L50.6796867,74.7365627" id="Stroke-35" stroke="#EA6E30" stroke-width="1.918"></path>
                <polygon id="Fill-37" fill="#FFFFFF" points="44.2899133 68.2613963 50.7494378 74.6960816 35.8251301 77.9285292 44.146249 68.1452564"></polygon>
                <polygon id="Stroke-39" stroke="#EA6E30" stroke-width="1.918" points="44.2899133 68.2613963 50.7494378 74.6960816 35.8251301 77.9285292 44.146249 68.1452564"></polygon>
                <path d="M74.7887776,40.0459222 C74.1557147,45.7656425 78.2729734,50.9147334 83.993365,51.5531669 C89.708386,52.1875725 94.8615049,48.0662858 95.4992671,42.3492508 C96.1356867,36.6308732 92.0110434,31.4764117 86.2933371,30.8406634 C80.5729455,30.2089431 75.4231832,34.3255306 74.7887776,40.0459222" id="Fill-41" fill="#FFFFFF"></path>
                <path d="M74.7887776,40.0459222 C74.1557147,45.7656425 78.2729734,50.9147334 83.993365,51.5531669 C89.708386,52.1875725 94.8615049,48.0662858 95.4992671,42.3492508 C96.1356867,36.6308732 92.0110434,31.4764117 86.2933371,30.8406634 C80.5729455,30.2089431 75.4231832,34.3255306 74.7887776,40.0459222 L74.7887776,40.0459222 L74.7887776,40.0459222 L74.7887776,40.0459222 L74.7887776,40.0459222 Z" id="Stroke-43" stroke="#EA6E30" stroke-width="1.918"></path>
                <path d="M94.0032783,46.9545655 C95.9252923,44.1463977 95.8259357,39.9452229 95.4392503,38.7005795 C94.966635,37.1773348 93.9072783,34.698118 92.0597818,33.4098383 L82.290607,42.4083278 C82.290607,42.4083278 89.7987469,50.4750131 89.9941035,50.5018662 C90.0753343,50.5112648 92.2504392,49.5150131 94.0032783,46.9545655" id="Fill-45" fill="#FFFFFF"></path>
                <path d="M94.0032783,46.9545655 C95.9252923,44.1463977 95.8259357,39.9452229 95.4392503,38.7005795 C94.966635,37.1773348 93.9072783,34.698118 92.0597818,33.4098383 L82.290607,42.4083278 C82.290607,42.4083278 89.7987469,50.4750131 89.9941035,50.5018662 C90.0753343,50.5112648 92.2504392,49.5150131 94.0032783,46.9545655 L94.0032783,46.9545655 L94.0032783,46.9545655 L94.0032783,46.9545655 L94.0032783,46.9545655 Z" id="Stroke-47" stroke="#EA6E30" stroke-width="1.918"></path>
                <path d="M92.0319217,39.9056145 C92.0319217,39.9056145 92.9711105,42.2122998 91.7795021,44.0067613" id="Stroke-49" stroke="#EA6E30" stroke-width="1.918"></path>
                <polyline id="Fill-51" fill="#FFFFFF" points="55.3851636 79.1429628 44.6029538 81.0616201 51.1114853 74.2999977"></polyline>
                <polyline id="Stroke-53" stroke="#EA6E30" stroke-width="1.918" points="55.3851636 79.1429628 44.6029538 81.0616201 51.1114853 74.2999977"></polyline>
                <path d="M44.5399832,68.3085907 L58.2465007,81.2081712" id="Stroke-55" stroke="#EA6E30" stroke-width="1.918"></path>
            </g>
        </g>
    </g>
</svg>