<?xml version="1.0" encoding="UTF-8" standalone="no"?>
<svg width="128px" height="128px" viewBox="0 0 128 128" version="1.1" xmlns="http://www.w3.org/2000/svg" xmlns:xlink="http://www.w3.org/1999/xlink">
    <!-- Generator: Sketch 41 (35326) - http://www.bohemiancoding.com/sketch -->
    <title>raml-square-logo</title>
    <desc>Created with Sketch.</desc>
    <defs></defs>
    <g id="Page-1" stroke="none" stroke-width="1" fill="none" fill-rule="evenodd">
        <g id="One-Click-Page" transform="translate(-16.000000, -160.000000)">
            <g id="raml-square-logo" transform="translate(16.000000, 160.000000)">
                <rect id="Rectangle" fill="#26C29F" x="0" y="0" width="128" height="128"></rect>
                <path d="M31.6626636,50.3502327 L17,50.3502327 L18.4620335,52.6969959 L31.5797881,52.6969959 C33.1818886,52.6969959 34.6905097,53.3398787 35.8275165,54.507263 C36.9600471,55.6699104 37.5836777,57.2032159 37.5836777,58.8246555 C37.5836777,60.4179339 36.9870349,61.8527623 35.8581548,62.9738633 C34.7832069,64.0415971 33.2848855,64.743627 31.6368927,64.9523585 L30.0314459,64.9523585 L25.6036252,64.9169833 L26.881655,67.1301548 L28.8227759,67.1301548 L28.9280761,67.2991652 L28.9435038,67.2991652 L34.6600887,76.9507071 L34.6865985,76.9955998 L34.7235383,77.0325396 C34.9725994,77.2814269 35.2848058,77.402459 35.6778452,77.402459 C36.3504101,77.402459 36.9185876,76.8152467 36.9185876,76.1202571 C36.9185876,75.8445559 36.8286718,75.7196994 36.7199819,75.5959728 C36.6757845,75.5456478 36.6208963,75.4829805 36.5378035,75.3415229 L31.8120308,67.2978615 C34.0092531,67.2597483 36.0639312,66.3842318 37.6117954,64.8225912 C39.1939049,63.2264445 40.065206,61.0962789 40.065206,58.8246555 C40.065206,54.1518153 36.2958262,50.3502327 31.6626636,50.3502327 L31.6626636,50.3502327 L31.6626636,50.3502327 L31.6626636,50.3502327 Z" id="Shape" fill="#FFFFFF"></path>
                <path d="M51.3983341,50.5887334 C51.2104192,50.2252458 50.8031689,50 50.3315129,50 C49.9041412,50 49.4790294,50.2303739 49.2734703,50.5732621 L49.1457021,50.7951182 C48.9778216,51.0866818 49.0717791,51.5097945 49.2392684,51.7997067 L51.2469244,55.2733074 L58.9321394,68.6284328 L58.5975953,68.6284328 L58.6079384,68.6465985 L48.7193735,68.6465985 L50.1486827,71.1432503 L60.3788321,71.1432503 L63.4695192,76.492306 L63.4769507,76.5046048 C63.6676469,76.8095971 63.9867198,77.3199746 64.654852,77.3199746 C65.3392811,77.3199746 65.8961159,76.7632268 65.8961159,76.078928 C65.8961159,75.8436433 65.8370557,75.6428212 65.7105043,75.448344 L51.3983341,50.5887334 L51.3983341,50.5887334 L51.3983341,50.5887334 L51.3983341,50.5887334 Z" id="Shape" fill="#FFFFFF"></path>
                <path d="M111.541791,74.8382725 L98.3479837,74.8382725 L98.3479837,51.2404817 C98.3479837,50.5564871 97.7914097,50 97.1072847,50 C96.4232033,50 95.8664989,50.5564871 95.8664989,51.2404817 L95.8664989,76.078928 C95.8664989,76.7632268 96.4231598,77.3199746 97.1072847,77.3199746 L112.97575,77.3199746 L111.541791,74.8382725 L111.541791,74.8382725 L111.541791,74.8382725 L111.541791,74.8382725 Z" id="Shape" fill="#FFFFFF"></path>
                <path d="M85.6450412,51.210191 C85.6288311,50.5401901 85.0790801,50 84.4050376,50 C84.373617,50 84.3430656,50.0015211 84.3129488,50.0039113 C84.2821367,50.0015211 84.2511507,50 84.2201648,50 C83.7479004,50 83.3402155,50.2256804 83.1527786,50.5898633 L74.9600978,64.9891679 L66.7676342,50.5898198 C66.580067,50.2256369 66.1723821,50 65.7002915,50 C65.2729199,50 64.8477211,50.2303739 64.6422924,50.5732621 L64.5144373,50.7952051 C64.3470783,51.0858126 64.4392105,51.508708 64.6045704,51.7988809 L73.7393463,67.8264047 L73.7479946,67.840833 C73.9387777,68.1458253 74.2579375,68.6562028 74.9260263,68.6562028 C74.9374993,68.6562028 74.9487116,68.6556813 74.9601412,68.6552902 C74.9715274,68.6557248 74.9828266,68.6562028 74.9942997,68.6562028 C75.6623884,68.6562028 75.9815917,68.1458253 76.1722445,67.840833 L83.1641648,55.5739104 L83.1641648,76.0790584 C83.1641648,76.7633572 83.7208692,77.320105 84.4049507,77.320105 C85.0890756,77.320105 85.64578,76.7633572 85.64578,76.0790584 L85.64578,51.2404817 C85.64578,51.2339629 85.6453019,51.2274876 85.645215,51.2209688 L85.6481702,51.2157972 L85.6450412,51.210191 L85.6450412,51.210191 L85.6450412,51.210191 L85.6450412,51.210191 Z" id="Shape" fill="#FFFFFF"></path>
            </g>
        </g>
    </g>
</svg>