<?xml version="1.0" encoding="UTF-8" standalone="no"?>
<svg width="128px" height="128px" viewBox="0 0 128 128" version="1.1" xmlns="http://www.w3.org/2000/svg" xmlns:xlink="http://www.w3.org/1999/xlink">
    <!-- Generator: Sketch 41 (35326) - http://www.bohemiancoding.com/sketch -->
    <title>Group 2</title>
    <desc>Created with Sketch.</desc>
    <defs></defs>
    <g id="Page-1" stroke="none" stroke-width="1" fill="none" fill-rule="evenodd">
        <g id="One-Click-Page" transform="translate(-160.000000, -304.000000)">
            <g id="Group-2" transform="translate(160.000000, 304.000000)">
                <rect id="Rectangle" fill="#FFFFFF" x="0" y="0" width="128" height="128"></rect>
                <path d="M92.6373264,67.92 C92.7973264,66.64 92.9173264,65.36 92.9173264,64 C92.9173264,62.64 92.7973264,61.36 92.6373264,60.08 L101.077326,53.48 C101.837326,52.88 102.037326,51.8 101.557326,50.92 L93.5573264,37.08 C93.0773264,36.2 91.9973264,35.88 91.1173264,36.2 L81.1573264,40.2 C79.0773264,38.6 76.8373264,37.28 74.3973264,36.28 L72.8773264,25.68 C72.7573264,24.72 71.9173264,24 70.9173264,24 L54.9173264,24 C53.9173264,24 53.0773264,24.72 52.9573264,25.68 L51.4373264,36.28 C48.9973264,37.28 46.7573264,38.64 44.6773264,40.2 L34.7173264,36.2 C33.7973264,35.84 32.7573264,36.2 32.2773264,37.08 L24.2773264,50.92 C23.7573264,51.8 23.9973264,52.88 24.7573264,53.48 L33.1973264,60.08 C33.0373264,61.36 32.9173264,62.68 32.9173264,64 C32.9173264,65.32 33.0373264,66.64 33.1973264,67.92 L24.7573264,74.52 C23.9973264,75.12 23.7973264,76.2 24.2773264,77.08 L32.2773264,90.92 C32.7573264,91.8 33.8373264,92.12 34.7173264,91.8 L44.6773264,87.8 C46.7573264,89.4 48.9973264,90.72 51.4373264,91.72 L52.9573264,102.32 C53.0773264,103.28 53.9173264,104 54.9173264,104 L70.9173264,104 C71.9173264,104 72.7573264,103.28 72.8773264,102.32 L74.3973264,91.72 C76.8373264,90.72 79.0773264,89.36 81.1573264,87.8 L91.1173264,91.8 C92.0373264,92.16 93.0773264,91.8 93.5573264,90.92 L101.557326,77.08 C102.037326,76.2 101.837326,75.12 101.077326,74.52 L92.6373264,67.92 L92.6373264,67.92 Z M62.9173264,78 C55.1973264,78 48.9173264,71.72 48.9173264,64 C48.9173264,56.28 55.1973264,50 62.9173264,50 C70.6373264,50 76.9173264,56.28 76.9173264,64 C76.9173264,71.72 70.6373264,78 62.9173264,78 L62.9173264,78 Z" id="Shape" fill="#9B9B9B"></path>
            </g>
        </g>
    </g>
</svg>