<?xml version="1.0" encoding="UTF-8" standalone="no"?>
<svg width="68px" height="23px" viewBox="0 0 68 23" version="1.1" xmlns="http://www.w3.org/2000/svg" xmlns:xlink="http://www.w3.org/1999/xlink">
    <!-- Generator: Sketch 3.8.3 (29802) - http://www.bohemiancoding.com/sketch -->
    <title>console-rest-icon</title>
    <desc>Created with Sketch.</desc>
    <defs>
        <rect id="path-1" x="1" y="1" width="27" height="21" rx="1.08"></rect>
        <mask id="mask-2" maskContentUnits="userSpaceOnUse" maskUnits="objectBoundingBox" x="0" y="0" width="27" height="21" fill="white">
            <use xlink:href="#path-1"></use>
        </mask>
    </defs>
    <g id="Page-1" stroke="none" stroke-width="1" fill="none" fill-rule="evenodd">
        <g id="console-rest-icon">
            <use id="Rectangle-2" stroke="#FFFFFF" mask="url(#mask-2)" stroke-width="4" xlink:href="#path-1"></use>
            <polyline id="Path-1" stroke="#FFFFFF" stroke-width="1.53" stroke-linecap="round" stroke-linejoin="round" points="6 6 11.2273993 11.5020928 6 17.0041857"></polyline>
            <path d="M31.5053989,16.01 C31.5053989,16.7228 32.0399989,17.2376 32.6933989,17.2376 C33.3269989,17.2376 33.8615989,16.7228 33.8615989,16.01 C33.8615989,15.2576 33.3269989,14.7428 32.6933989,14.7428 C32.0399989,14.7428 31.5053989,15.2576 31.5053989,16.01 L31.5053989,16.01 Z M36.7721989,17 L38.3957989,17 L38.3957989,10.8224 C39.0491989,9.1988 40.0193989,8.6048 40.8311989,8.6048 C41.2271989,8.6048 41.4449989,8.6642 41.7617989,8.7632 L42.0785989,7.3376 C41.7617989,7.199 41.4647989,7.1396 41.0489989,7.1396 C39.9599989,7.1396 38.9699989,7.9118 38.3165989,9.1196 L38.2571989,9.1196 L38.1185989,7.3772 L36.7721989,7.3772 L36.7721989,17 Z M42.7319989,12.2084 C42.7319989,15.3566 44.7713989,17.2376 47.3453989,17.2376 C48.6521989,17.2376 49.6817989,16.7822 50.5133989,16.2476 L49.9391989,15.1784 C49.2263989,15.6338 48.4541989,15.9308 47.5433989,15.9308 C45.7019989,15.9308 44.4545989,14.624 44.3357989,12.545 L50.8301989,12.545 C50.8697989,12.3074 50.8895989,11.9906 50.8895989,11.654 C50.8895989,8.9018 49.5035989,7.1396 47.0483989,7.1396 C44.8505989,7.1396 42.7319989,9.0602 42.7319989,12.2084 L42.7319989,12.2084 Z M44.3159989,11.4758 C44.5139989,9.5354 45.7415989,8.4266 47.0879989,8.4266 C48.5927989,8.4266 49.4639989,9.5156 49.4639989,11.4758 L44.3159989,11.4758 Z M52.1963989,15.911 C53.1071989,16.6634 54.4139989,17.2376 55.7801989,17.2376 C58.0571989,17.2376 59.3045989,15.9308 59.3045989,14.3666 C59.3045989,12.545 57.7601989,11.9708 56.3741989,11.456 C55.2851989,11.0402 54.2357989,10.6838 54.2357989,9.7928 C54.2357989,9.0602 54.7901989,8.4068 55.9979989,8.4068 C56.8493989,8.4068 57.5423989,8.7632 58.1957989,9.2582 L58.9679989,8.2286 C58.2353989,7.6346 57.1859989,7.1396 55.9781989,7.1396 C53.8991989,7.1396 52.6715989,8.3276 52.6715989,9.872 C52.6715989,11.4956 54.1763989,12.149 55.5425989,12.644 C56.5919989,13.04 57.7403989,13.4756 57.7403989,14.4656 C57.7403989,15.2972 57.1067989,15.9704 55.8395989,15.9704 C54.6911989,15.9704 53.8397989,15.4952 53.0081989,14.822 L52.1963989,15.911 Z M61.8389989,14.03 C61.8389989,15.9308 62.5319989,17.2376 64.5911989,17.2376 C65.1851989,17.2376 65.8385989,17.0594 66.3731989,16.8812 L66.0563989,15.6536 C65.7395989,15.7724 65.3039989,15.911 64.9673989,15.911 C63.8585989,15.911 63.4823989,15.2378 63.4823989,14.0498 L63.4823989,8.7038 L66.0761989,8.7038 L66.0761989,7.3772 L63.4823989,7.3772 L63.4823989,4.6844 L62.1161989,4.6844 L61.9181989,7.3772 L60.4133989,7.4762 L60.4133989,8.7038 L61.8389989,8.7038 L61.8389989,14.03 Z" id=".rest-copy" fill="#FFFFFF"></path>
        </g>
    </g>
</svg>