<?xml version="1.0" encoding="utf-8"?>
<!-- Generator: Adobe Illustrator 19.1.0, SVG Export Plug-In . SVG Version: 6.00 Build 0)  -->
<svg version="1.1" id="Calque_1" xmlns="http://www.w3.org/2000/svg" xmlns:xlink="http://www.w3.org/1999/xlink" x="0px" y="0px"
	 viewBox="0 0 579.7 255.1" style="enable-background:new 0 0 579.7 255.1;" xml:space="preserve">
<style type="text/css">
	.st0{fill:#00AAFF;}
</style>
<g>
	<g>
		<g>
			<path class="st0" d="M519.9,177c-1.9-7.4-6-6.4-8.8-6.1c-1.1,0.1-2,0.2-2.6,0c-2-1.6-8-15.4-12.3-29.8
				c-3.8-12.6,5.1-23.9,5.1-44.5c0-37.6-29.8-55.1-29.8-55.1s5.2,18.3,3.1,25.6c0,0-4.3-10.9-11.2-15c2,22.9-5.3,27.6-25,31.7
				c7.4,5.5,14.5,7.2,28.4,7.2c27.3,0,37.8,21.8,16.2,49.1c6.6,15.3,18.7,35.4,20.2,36.9c3.4,3.5,11,3.3,15.8,1.6
				C519.7,178.3,520,177.7,519.9,177z"/>
		</g>
		<g>
			<path class="st0" d="M416.8,175.9c2.9,5.6,12,4.8,26.6,3.1c6.9-0.8,14.9-1.7,23-1.7c-11.1-35.6,1.6-40.6,10.2-54.7
				c11.5-19.1-1.2-25.1-9.5-25.1C462.1,134,406.6,110.9,416.8,175.9z"/>
		</g>
		<path class="st0" d="M414.2,216c8.4,0,18.3-1.4,28.9-2.9c22.3-3.2,47.4-6.8,70.3,0.7c-16.3-34.4-45.6-31-69.3-28.2
			c-13.9,1.6-26,3.1-31.5-4.6c-11.3,0.7-20.2,8.1-20.2,17.1C392.4,207.8,402.3,216,414.2,216z"/>
	</g>
	<g>
		<path class="st0" d="M111.1,66.2H66.7v122H77v-45h31.9c13,0,24.9-3.5,33.4-9.8c9.4-7,14.4-17.1,14.4-29.2v-0.3
			C156.6,81,138.8,66.2,111.1,66.2z M146.3,104.3v0.3c0,17.3-14.8,29-36.9,29H77V75.8h33.5C132.9,75.8,146.3,86.5,146.3,104.3z"/>
	</g>
	<polygon class="st0" points="374.1,99 348,174.8 322.1,99.1 322.1,99 314.2,99 288.2,174.8 262.2,99 251.3,99 283.8,188.4 
		284,188.9 292.2,188.9 318.1,114.9 343.6,188.4 343.8,188.9 352,188.9 384.7,99 	"/>
</g>
<path class="st0" d="M205.5,97.6c-13.2,0-23.3,3.9-31.5,7.6l3.7,8.6c9.3-4.8,18-7,27.3-7c18.2,0,28.3,9.3,28.3,26.2v2.9
	c-7.3-1.9-15.8-3.6-28.5-3.6c-24.1,0-39.1,11.2-39.1,29.3v0.3c0,18.1,15,29.3,39.1,29.3c20,0,38.1-6.2,38.1-6.2v-52.4
	c0-10.9-3-19.1-9.2-25.3C227.2,101,217.5,97.6,205.5,97.6z M176,162.5v-1.4c0-12.2,10.8-19.8,28.3-19.8c12.3,0,22,2,29.1,3.8v33.4
	c-7.1,1.8-16.8,3.8-29.1,3.8C186.8,182.4,176,174.8,176,162.5z"/>
</svg>
