<?xml version="1.0" encoding="UTF-8" standalone="no"?>
<svg width="286px" height="169px" viewBox="0 0 286 169" version="1.1" xmlns="http://www.w3.org/2000/svg" xmlns:xlink="http://www.w3.org/1999/xlink">
    <!-- Generator: Sketch 39.1 (31720) - http://www.bohemiancoding.com/sketch -->
    <title>upload-icons</title>
    <desc>Created with Sketch.</desc>
    <defs>
        <path d="M-8.52651283e-14,3.99941455 C-8.52651283e-14,1.79059889 1.79078177,-2.13162821e-13 3.99987364,-2.13162821e-13 L38.7392837,-2.13162821e-13 L57,18.7910223 L57,68.0006786 C57,70.2094428 55.1999609,72 52.9918707,72 L4.00812931,72 C1.79450062,72 -8.52651283e-14,70.2022516 -8.52651283e-14,68.0005854 L-8.52651283e-14,3.99941455 Z" id="path-1"></path>
        <mask id="mask-2" maskContentUnits="userSpaceOnUse" maskUnits="objectBoundingBox" x="0" y="0" width="57" height="72" fill="white">
            <use xlink:href="#path-1"></use>
        </mask>
        <mask id="mask-4" maskContentUnits="userSpaceOnUse" maskUnits="objectBoundingBox" x="0" y="0" width="57" height="72" fill="white">
            <use xlink:href="#path-1"></use>
        </mask>
        <rect id="path-5" x="38" y="-2.25888171" width="21.0469566" height="21.2588817" rx="4"></rect>
        <mask id="mask-6" maskContentUnits="userSpaceOnUse" maskUnits="objectBoundingBox" x="0" y="0" width="21.0469566" height="21.2588817" fill="white">
            <use xlink:href="#path-5"></use>
        </mask>
        <path d="M-1.42108547e-13,3.99941455 C-1.42108547e-13,1.79059889 1.79078177,1.70530257e-13 3.99987364,1.70530257e-13 L38.7392837,1.70530257e-13 L57,18.7910223 L57,68.0006786 C57,70.2094428 55.1999609,72 52.9918707,72 L4.00812931,72 C1.79450062,72 -1.42108547e-13,70.2022516 -1.42108547e-13,68.0005854 L-1.42108547e-13,3.99941455 Z" id="path-7"></path>
        <mask id="mask-8" maskContentUnits="userSpaceOnUse" maskUnits="objectBoundingBox" x="0" y="0" width="57" height="72" fill="white">
            <use xlink:href="#path-7"></use>
        </mask>
        <mask id="mask-10" maskContentUnits="userSpaceOnUse" maskUnits="objectBoundingBox" x="0" y="0" width="57" height="72" fill="white">
            <use xlink:href="#path-7"></use>
        </mask>
        <rect id="path-11" x="38" y="-2.25888171" width="21.0469566" height="21.2588817" rx="4"></rect>
        <mask id="mask-12" maskContentUnits="userSpaceOnUse" maskUnits="objectBoundingBox" x="0" y="0" width="21.0469566" height="21.2588817" fill="white">
            <use xlink:href="#path-11"></use>
        </mask>
        <path d="M2.27373675e-13,3.99941455 C2.27373675e-13,1.79059889 1.79078177,-1.27897692e-13 3.99987364,-1.27897692e-13 L38.7392837,-1.27897692e-13 L57,18.7910223 L57,68.0006786 C57,70.2094428 55.1999609,72 52.9918707,72 L4.00812931,72 C1.79450062,72 2.27373675e-13,70.2022516 2.27373675e-13,68.0005854 L2.27373675e-13,3.99941455 Z" id="path-13"></path>
        <mask id="mask-14" maskContentUnits="userSpaceOnUse" maskUnits="objectBoundingBox" x="0" y="0" width="57" height="72" fill="white">
            <use xlink:href="#path-13"></use>
        </mask>
        <mask id="mask-16" maskContentUnits="userSpaceOnUse" maskUnits="objectBoundingBox" x="0" y="0" width="57" height="72" fill="white">
            <use xlink:href="#path-13"></use>
        </mask>
        <rect id="path-17" x="38" y="-2.25888171" width="21.0469566" height="21.2588817" rx="4"></rect>
        <mask id="mask-18" maskContentUnits="userSpaceOnUse" maskUnits="objectBoundingBox" x="0" y="0" width="21.0469566" height="21.2588817" fill="white">
            <use xlink:href="#path-17"></use>
        </mask>
        <path d="M4.26325641e-14,3.99941455 C4.26325641e-14,1.79059889 1.79078177,1.77635684e-13 3.99987364,1.77635684e-13 L38.7392837,1.77635684e-13 L57,18.7910223 L57,68.0006786 C57,70.2094428 55.1999609,72 52.9918707,72 L4.00812931,72 C1.79450062,72 4.26325641e-14,70.2022516 4.26325641e-14,68.0005854 L4.26325641e-14,3.99941455 Z" id="path-19"></path>
        <mask id="mask-20" maskContentUnits="userSpaceOnUse" maskUnits="objectBoundingBox" x="0" y="0" width="57" height="72" fill="white">
            <use xlink:href="#path-19"></use>
        </mask>
        <mask id="mask-22" maskContentUnits="userSpaceOnUse" maskUnits="objectBoundingBox" x="0" y="0" width="57" height="72" fill="white">
            <use xlink:href="#path-19"></use>
        </mask>
        <rect id="path-23" x="38" y="-2.25888171" width="21.0469566" height="21.2588817" rx="4"></rect>
        <mask id="mask-24" maskContentUnits="userSpaceOnUse" maskUnits="objectBoundingBox" x="0" y="0" width="21.0469566" height="21.2588817" fill="white">
            <use xlink:href="#path-23"></use>
        </mask>
        <path d="M0,3.99941455 C0,1.79059889 1.79078177,0 3.99987364,0 L38.7392837,0 L57,18.7910223 L57,68.0006786 C57,70.2094428 55.1999609,72 52.9918707,72 L4.00812931,72 C1.79450062,72 0,70.2022516 0,68.0005854 L0,3.99941455 Z" id="path-25"></path>
        <mask id="mask-26" maskContentUnits="userSpaceOnUse" maskUnits="objectBoundingBox" x="0" y="0" width="57" height="72" fill="white">
            <use xlink:href="#path-25"></use>
        </mask>
        <mask id="mask-28" maskContentUnits="userSpaceOnUse" maskUnits="objectBoundingBox" x="0" y="0" width="57" height="72" fill="white">
            <use xlink:href="#path-25"></use>
        </mask>
        <rect id="path-29" x="38" y="-2.25888171" width="21.0469566" height="21.2588817" rx="4"></rect>
        <mask id="mask-30" maskContentUnits="userSpaceOnUse" maskUnits="objectBoundingBox" x="0" y="0" width="21.0469566" height="21.2588817" fill="white">
            <use xlink:href="#path-29"></use>
        </mask>
    </defs>
    <g id="Console.rest" stroke="none" stroke-width="1" fill="none" fill-rule="evenodd">
        <g id="Artboard" transform="translate(-328.000000, -170.000000)">
            <g id="upload-icons" transform="translate(327.000000, 170.000000)">
                <g id="postman-file" transform="translate(45.717842, 94.354091) rotate(-60.000000) translate(-45.717842, -94.354091) translate(17.217842, 58.354091)">
                    <mask id="mask-3" fill="white">
                        <use xlink:href="#path-1"></use>
                    </mask>
                    <g id="Rectangle-3" stroke="#2E3748" mask="url(#mask-2)" stroke-width="2" fill="#EAF0F9">
                        <use mask="url(#mask-4)" xlink:href="#path-1"></use>
                    </g>
                    <g id="Rectangle-4" mask="url(#mask-3)" stroke-width="2" stroke="#2E3748">
                        <use mask="url(#mask-6)" xlink:href="#path-5"></use>
                    </g>
                    <g id="postman-square-logo" mask="url(#mask-3)">
                        <g transform="translate(10.500000, 26.486641)" id="Postman-squared">
                            <g>
                                <g id="Page-1" fill="#2E3748">
                                    <g id="Postman-squared" transform="translate(-0.000000, -0.000000)">
                                        <g id="postman-logo-2">
                                            <path d="M35.8263248,19.2918762 C34.6240185,28.6661969 26.0492548,35.289215 16.6764842,34.085617 C7.30216357,32.8830524 0.679145465,24.308547 1.88145175,14.934743 C3.08453305,5.56119743 11.6574884,-1.0625957 21.032584,0.141260619 C30.406388,1.34330858 37.0309561,9.91858895 35.8263248,19.2918762" id="Fill-18"></path>
                                            <g id="fills" transform="translate(0.000000, 5.000000)">
                                                <polygon id="Fill-16" points="6.47137354 31.0208031 1.42108547e-14 31.2450407 3.31732166 27.8721763"></polygon>
                                                <path d="M23.2173249,7.25618857 L12.9605207,17.6028944 L12.9811878,17.582744 L12.9773127,17.5842941 L10.4324225,15.0768629 C15.7397238,8.47657853 19.1707143,7.2455967 19.1707143,7.2455967 C19.1707143,7.2455967 21.4043069,6.37370506 22.9977374,7.05029297 C23.1201897,7.11591089 23.1734074,7.15388662 23.2173249,7.25618857" id="Fill-29"></path>
                                                <path d="M15.8549168,20.4473537 C13.4079368,22.4626506 10.2763603,25.6283277 6.01972075,27.8363448 L6.96653049,31.8837304 L2.95350388,27.9311549 L12.9604949,17.6027911" id="Fill-33"></path>
                                                <polygon id="Fill-37" points="10.5016055 15.111041 12.9873363 17.5872133 7.24421829 18.831112 10.4463211 15.0663485"></polygon>
                                                <path d="M22.2380679,4.25326458 C21.9944549,6.4543066 23.5788435,8.43576109 25.7801438,8.68144078 C27.9793775,8.92557044 29.962382,7.33963183 30.2078033,5.13962316 C30.452708,2.93909782 28.8654777,0.955576625 26.6652107,0.710930288 C24.4639103,0.46783398 22.4821975,2.05196422 22.2380679,4.25326458" id="Fill-41"></path>
                                                <path d="M29.6321223,6.91182366 C30.3717448,5.8311947 30.3335107,4.21451384 30.1847079,3.73555469 C30.0028378,3.14938517 29.59518,2.19534196 28.8842331,1.69959083 L25.1248946,5.16235693 C25.1248946,5.16235693 28.0141498,8.26654952 28.0893262,8.27688306 C28.1205852,8.28049979 28.9576011,7.89712581 29.6321223,6.91182366" id="Fill-45"></path>
                                                <polyline id="Fill-51" points="14.7712395 19.298446 10.6220686 20.0367767 13.1266581 17.4347937"></polyline>
                                                <path d="M12.9605983,17.6028428 L23.2006104,7.21919453 C23.720387,7.83636465 23.8306974,8.50132734 23.6800862,9.4489121 C23.5785593,10.104833 22.4452293,11.416158 22.4452293,11.416158 L14.6826811,19.2967668" id="Fill-25"></path>
                                                <path d="M23.2173249,7.24861926 C24.3418714,8.44395041 23.2320502,11.270171 23.2320502,11.270171 C23.2320502,11.270171 22.1351459,15.265889 15.8549427,20.4473796 L14.6826036,19.296741 L22.6546641,11.148752 L22.8088921,10.9407897 C23.0209878,10.5951331 23.1966578,7.22536882 23.2173249,7.24861926" id="Fill-21"></path>
                                            </g>
                                        </g>
                                    </g>
                                </g>
                            </g>
                        </g>
                    </g>
                    <g id="Simplified-postman" mask="url(#mask-3)">
                        <g transform="translate(12.364059, 31.900969)">
                            <g id="body" transform="translate(0.926918, 5.873418)">
                                <path d="M4.12978006,25.5534668 L3.22565616,21.5573025 C7.13171301,19.5841816 12.3084098,14.8034951 15.1819459,12.2320239 C18.055482,9.66055267 22.6548234,3.55542448 20.3033906,1.03297103 C15.7089378,-1.964086 7.63003482,8.93920575 7.63003482,8.93920575 L4.62653165,12.4435286 L9.99444879,11.4591735 L0.161668903,21.6690216 L4.12978006,25.5534668 Z" id="Path-2" stroke="#EAF0F9" stroke-width="0.5"></path>
                                <path d="M7.8,9 L13.27,14.1782189" id="Path-3" stroke="#EAF0F9" stroke-width="0.5"></path>
                                <path d="M7.75,13.8180532 L20.2553568,1.20001221 C20.6959324,1.53476602 21.1970742,2.98817761 20.380825,4.37460457 L11.9063922,13.0594941 L7.75,13.8180532 Z" id="Path-4" stroke="#EAF0F9" stroke-width="0.5"></path>
                            </g>
                            <g id="head" transform="translate(20.373199, 0.246406)">
                                <ellipse id="Oval" stroke="#EAF0F9" stroke-width="0.5" cx="4" cy="4" rx="4" ry="4"></ellipse>
                                <polyline id="Path-5" stroke="#EAF0F9" stroke-width="0.5" points="6.67666286 1 3 4.464963 5.92832195 7.50522712"></polyline>
                                <path d="M6.68834639,3.5 C6.90790999,3.81224826 7.20928407,4.47657765 6.5,5.04811039" id="Path-6" stroke="#EAF0F9" stroke-width="0.5"></path>
                            </g>
                        </g>
                    </g>
                </g>
                <g id="curl-file" transform="translate(249.776330, 96.208975) rotate(60.000000) translate(-249.776330, -96.208975) translate(221.276330, 60.208975)">
                    <mask id="mask-9" fill="white">
                        <use xlink:href="#path-7"></use>
                    </mask>
                    <g id="Rectangle-3" stroke="#2E3748" mask="url(#mask-8)" stroke-width="2" fill="#EAF0F9">
                        <use mask="url(#mask-10)" xlink:href="#path-7"></use>
                    </g>
                    <g id="Rectangle-4" mask="url(#mask-9)" stroke-width="2" stroke="#2E3748">
                        <use mask="url(#mask-12)" xlink:href="#path-11"></use>
                    </g>
                    <g id="Markdown-mark" mask="url(#mask-9)">
                        <g transform="translate(12.000000, 30.000000)" id="Group">
                            <g>
                                <polygon id="Shape" fill="#2E3748" points="0.211538462 14.5714286 0.211538462 0 4.44230769 0 8.67307692 5.35714286 12.9038462 0 17.1346154 0 17.1346154 14.5714286 12.9038462 14.5714286 12.9038462 6.21428571 8.67307692 11.5714286 4.44230769 6.21428571 4.44230769 14.5714286"></polygon>
                                <polygon id="Shape" fill="#2E3748" points="26.6538462 14.5714286 20.3076923 7.5 24.5384615 7.5 24.5384615 0 28.7692308 0 28.7692308 7.5 33 7.5"></polygon>
                                <text id="CURL" font-family="Arial-Black, Arial Black" font-size="10.5" font-weight="700" fill="#2E3748">
                                    <tspan x="0.457763672" y="27">CURL</tspan>
                                </text>
                            </g>
                        </g>
                    </g>
                </g>
                <g id="swagger-file" transform="translate(206.094606, 51.782061) rotate(30.000000) translate(-206.094606, -51.782061) translate(177.594606, 15.782061)">
                    <mask id="mask-15" fill="white">
                        <use xlink:href="#path-13"></use>
                    </mask>
                    <g id="Rectangle-3" stroke="#2E3748" mask="url(#mask-14)" stroke-width="2" fill="#EAF0F9">
                        <use mask="url(#mask-16)" xlink:href="#path-13"></use>
                    </g>
                    <g id="Rectangle-4" mask="url(#mask-15)" stroke-width="2" stroke="#2E3748">
                        <use mask="url(#mask-18)" xlink:href="#path-17"></use>
                    </g>
                    <g id="OpenAPI_Logo_Black" mask="url(#mask-15)">
                        <g transform="translate(7.000000, 24.000000)" id="Layer_1">
                            <g>
                                <path d="M11.596906,24.3592173 L0.616395624,24.3592173 L0.616395624,24.5189473 L0.616395624,24.8272634 L0.616395624,24.9609909 C0.616395624,25.0798597 0.634968882,25.1987286 0.646112837,25.332456 L0.646112837,25.4141784 C0.658495009,25.5454294 0.673353616,25.6779186 0.690688657,25.8116461 L0.690688657,25.8487926 C0.690688657,25.9899494 0.727835174,26.1311061 0.746408432,26.2722629 L0.746408432,26.2722629 C0.87276656,27.151611 1.0627117,28.0206411 1.31475014,28.8725191 L1.31475014,28.8725191 C1.35561131,29.0062465 1.39647247,29.139974 1.43733364,29.2737015 L1.43733364,29.2959894 L1.43733364,29.3182773 C1.47448016,29.4371461 1.51534133,29.556015 1.55991715,29.6897424 L1.59334901,29.7788941 L1.70478856,30.0909248 L1.75679369,30.2320816 L1.85708928,30.4883926 L1.99824605,30.6481226 L2.08368303,30.8487138 L2.19140793,31.0938808 L2.26198631,31.2573254 L2.39942843,31.5507829 L2.44400425,31.6436492 L2.60744892,31.9779679 L2.63345148,32.0262583 L2.82661337,32.3977235 L2.82661337,32.3977235 L2.87118919,32.4720165 L12.24697,26.8220314 L12.2804019,26.7997434 C11.9149502,26.0312066 11.6837786,25.2057732 11.596906,24.3592173 L11.596906,24.3592173 Z" id="Shape" fill-opacity="0.6" fill="#2E3748"></path>
                                <polygon id="Shape" fill="#939598" points="1.13644686 29.4272747 1.14144686 29.4422747 1.61644686 29.2922747"></polygon>
                                <path d="M14.2937431,29.3999996 L14.2677405,29.4260022 L6.53383574,37.159907 L6.65270459,37.2713465 L6.87186904,37.4645084 L6.98330859,37.564804 L7.24704886,37.7876831 L7.31762724,37.8471175 L7.62222867,38.0774259 L7.65937519,38.1071431 L7.98997919,38.3634541 L7.98997919,38.3634541 C8.45554887,38.7126314 8.93721537,39.0382825 9.43497869,39.3404075 L9.48698381,39.3701247 L9.79158525,39.5632866 L9.96617388,39.6635822 L10.1333332,39.7564485 L10.43422,39.9347518 L10.4750812,39.9347518 C10.7573947,40.0833378 11.0434229,40.2170653 11.329451,40.3507927 L11.329451,40.3507927 L11.6043353,39.6858701 L15.4935756,30.2395109 L15.4935756,30.206079 C15.0683812,29.9770241 14.6665356,29.7070535 14.2937431,29.3999996 L14.2937431,29.3999996 Z" id="Shape" fill-opacity="0.9" fill="#2E3748"></path>
                                <path d="M13.4913783,28.6273521 C13.409656,28.5344858 13.3279336,28.4379048 13.249926,28.3413239 C13.1719183,28.2447429 13.1124838,28.1704499 13.0493348,28.0812983 C12.9861857,27.9921466 12.9044634,27.8807071 12.833885,27.7766968 C12.7633066,27.6726866 12.6964429,27.5686763 12.6332938,27.4646661 L3.24265435,33.1257952 C3.38752577,33.3635329 3.53611184,33.597556 3.69212721,33.8278644 L3.69212721,33.853867 L3.69212721,33.853867 L3.69212721,33.853867 L3.69212721,33.8761549 L3.69212721,33.8761549 L3.72927372,33.9318747 L3.72927372,33.9318747 C3.8927184,34.1795181 4.05987772,34.4160176 4.2307517,34.6413731 L4.2307517,34.6413731 L4.2307517,34.6413731 L4.45734545,34.9385453 L4.48706266,34.9756918 L4.72851502,35.2765786 L4.86224248,35.3917328 L5.08512158,35.655473 L5.18541718,35.7669126 L5.37857907,35.986077 L5.49001862,36.1049459 L5.53830909,36.1606657 L5.6831805,36.316681 L5.74261493,36.3761155 L6.00264055,36.6435704 L13.7476893,28.8985216 C13.654823,28.8130846 13.5731007,28.7202184 13.4913783,28.6273521 L13.4913783,28.6273521 Z" id="Shape" fill-opacity="0.8" fill="#2E3748"></path>
                                <path d="M23.7549609,29.396285 L23.4949353,29.5968762 L23.5135085,29.630308 L29.1597791,39.0023742 C29.4198047,38.8315002 29.6798303,38.6569116 29.9324266,38.471179 C30.4848149,38.063536 31.0143353,37.6257825 31.5185829,37.159907 L23.7846781,29.4260022 L23.7549609,29.396285 Z" id="Shape" fill-opacity="0.9" fill="#2E3748"></path>
                                <circle id="Oval" fill="#939598" transform="translate(28.982978, 39.071845) rotate(-79.700000) translate(-28.982978, -39.071845) " cx="28.5368409" cy="38.6180291" r="0.05"></circle>
                                <polygon id="Shape" fill="#939598" points="28.4614245 39.4548419 28.4614245 39.4548419 28.5614245 39.3998419 28.5614245 39.3998419"></polygon>
                                <polygon id="Shape" fill="#939598" points="28.4465659 39.4481324 28.4515659 39.4481324 28.4515659 39.4481324"></polygon>
                                <polygon id="Shape" fill="#939598" points="28.4467073 39.4595591 28.4517073 39.4595591 28.4317073 39.4295591"></polygon>
                                <polygon id="Shape" fill="#939598" points="28.4391366 39.456847 28.4391366 39.456847 28.4441366 39.451847 28.4441366 39.451847"></polygon>
                                <circle id="Oval" fill="#939598" transform="translate(29.083889, 39.576403) rotate(-34.990000) translate(-29.083889, -39.576403) " cx="28.639366" cy="39.1210197" r="0.05"></circle>
                                <polygon id="Shape" fill="#939598" points="28.4614245 39.4548419 28.5614245 39.3998419 28.4614245 39.4548419"></polygon>
                                <polygon id="Shape" fill="#939598" points="28.5357176 39.4011273 28.5357176 39.3961273 28.5357176 39.3961273"></polygon>
                                <rect id="Rectangle-path" fill="#939598" transform="translate(29.079520, 39.590888) rotate(-33.690000) translate(-29.079520, -39.590888) " x="28.5833277" y="39.0871259" width="0.1" height="0.1"></rect>
                                <polygon id="Shape" fill="#939598" points="28.435422 39.4555617 28.440422 39.4555617 28.440422 39.4555617"></polygon>
                                <path d="M28.3425557,39.0803819 L28.1493938,38.7609218 L22.8783031,30.0092025 C22.7705782,30.0723516 22.6628533,30.131786 22.5551284,30.1912204 C22.4474035,30.2506548 22.3359639,30.3063746 22.2208097,30.3583797 C20.5544824,31.1535875 18.6522689,31.3018463 16.8828553,30.7744207 C16.7639864,30.7372742 16.6488322,30.6926984 16.533678,30.6518372 C16.4185238,30.6109761 16.299655,30.5738295 16.1845008,30.5292537 L12.2915458,39.964469 L12.1392451,40.3359341 L12.0092323,40.6516795 L12.0092323,40.6516795 L12.0389495,40.6516795 L12.0723814,40.6516795 L12.0723814,40.6516795 L12.3472656,40.7556898 L12.6927282,40.8894172 L12.8710315,40.956281 L12.8710315,40.956281 C14.0893637,41.3860896 15.3492848,41.6873751 16.630259,41.8552267 L16.778845,41.8737999 L16.9348604,41.8737999 L17.2320325,41.9072318 L17.3063256,41.9072318 L17.6777907,41.936949 L17.8003743,41.936949 L18.1198343,41.9555223 L18.3167108,41.9555223 L18.5693071,41.9555223 L19.0224947,41.9555223 C20.0468871,41.9548958 21.0694568,41.869164 22.079653,41.6992113 L22.079653,41.6992113 L22.1316581,41.6992113 L22.4511181,41.6397769 L22.6331361,41.606345 L22.8225833,41.5654838 L23.1346141,41.4986201 L23.1903338,41.4986201 C24.728074,41.1394658 26.2135928,40.585205 27.6107693,39.8493148 L27.6107693,39.8493148 L27.8819389,39.697014 L28.2051136,39.5149961 L28.4279927,39.388698 L28.4279927,39.388698 L28.4279927,39.36641 L28.4279927,39.388698 L28.4279927,39.388698 L28.4279927,39.388698 L28.5022857,39.3441221 L28.5022857,39.3441221 L28.3425557,39.0803819 Z" id="Shape" fill-opacity="0.6" fill="#2E3748"></path>
                                <path d="M14.3011724,17.836289 L14.561198,17.6356978 L14.5426247,17.6022659 L8.8963542,8.23019974 C8.63261393,8.40107372 8.37630296,8.579377 8.119992,8.76510958 C7.5686509,9.17125267 7.04035262,9.60778083 6.53755039,10.072667 L14.2714552,17.8065717 L14.3011724,17.836289 Z" id="Shape" fill-opacity="0.6" fill="#2E3748"></path>
                                <path d="M5.99892589,10.5890036 C5.90977425,10.6781552 5.82805192,10.7673068 5.74261493,10.8564585 L5.48630396,11.1239134 C4.92197817,11.7343382 4.39950107,12.3821601 3.92243561,13.0629616 L3.85557188,13.1595425 L3.69955651,13.3898509 L3.53982649,13.6350179 L3.48039206,13.7241696 C1.7344785,16.4672124 0.747483495,19.6243146 0.620110275,22.8733566 L0.620110275,23.2448218 L0.620110275,23.616287 L11.5486155,23.616287 L11.5486155,23.2448218 C11.5486155,23.1222383 11.5486155,22.9959401 11.5671887,22.8733566 C11.711015,21.409172 12.2863311,20.0206563 13.2202087,18.8838207 C13.2982164,18.7872398 13.3873681,18.6980881 13.4690904,18.6089365 C13.5508127,18.5197849 13.6288204,18.4232039 13.7179721,18.3340523 L5.99892589,10.5890036 Z" id="Shape" fill-opacity="0.9" fill="#2E3748"></path>
                                <path d="M28.5988667,7.86616388 L28.5542908,7.84016132 L28.264548,7.66557269 L28.093674,7.56899174 L27.9228001,7.4724108 L27.6256279,7.31268078 L27.5773374,7.28667822 C26.9367105,6.95198981 26.2768236,6.65553687 25.6011428,6.39887647 L25.5491376,6.38030321 L25.1070941,6.22057319 C23.9096139,5.80254658 22.6723169,5.50878191 21.4147303,5.34391539 L21.2624296,5.32162748 L21.1101289,5.32162748 L20.8129568,5.28819562 L20.7312344,5.28819562 L20.3597693,5.2584784 L20.2223271,5.2584784 L19.9177257,5.2584784 L19.7579957,5.2584784 L19.7579957,16.2389887 C20.3248589,16.3002118 20.8830685,16.4248122 21.4221596,16.6104539 L29.501527,8.53108653 C29.2154988,8.25991695 28.9108974,8.05932576 28.5988667,7.86616388 L28.5988667,7.86616388 Z" id="Shape" fill-opacity="0.9" fill="#2E3748"></path>
                                <polygon id="Shape" fill="#6D6E71" points="9.78041568 8.26273201 9.52041568 7.83273201 9.52041568 7.83273201 9.78041568 8.26273201"></polygon>
                                <path d="M18.6584588,5.19904398 L18.2869936,5.19904398 C17.5113743,5.22985283 16.7384492,5.30925445 15.9727656,5.43678168 L15.9207605,5.43678168 L15.6013005,5.49621611 L15.4192825,5.52964798 L15.2298353,5.57050914 L14.9178046,5.63737287 L14.9178046,5.63737287 L14.8620848,5.63737287 C13.3204148,6.00543492 11.8323191,6.56971281 10.43422,7.31639543 L10.43422,7.31639543 L10.1630504,7.46869615 L9.83987572,7.65071408 L9.59842336,7.78815619 L9.59842336,7.78815619 L9.59842336,7.78815619 L9.53527429,7.82530271 L9.53527429,7.82530271 L9.72843617,8.14476275 L9.72843617,8.14476275 L15.1926888,17.2122275 C15.3004137,17.1490784 15.4081386,17.089644 15.5158635,17.0302095 C15.6235884,16.9707751 15.7350279,16.9150553 15.8501821,16.8630502 C16.6219537,16.4950918 17.451269,16.2626322 18.3018522,16.1758397 L18.6733174,16.1461225 L19.0447826,16.1461225 L19.0447826,5.18790002 L18.6584588,5.19904398 Z" id="Shape" fill-opacity="0.8" fill="#2E3748"></path>
                                <path d="M37.4323083,22.709912 L37.4323083,22.4164545 L37.4323083,22.2678684 C37.4323083,22.1527142 37.4323083,22.03756 37.4025911,21.9224058 L37.4025911,21.8332542 C37.3902089,21.7044796 37.3765886,21.5806578 37.36173,21.461789 L37.36173,21.3986399 C37.3443949,21.2599596 37.3258217,21.1212793 37.3060102,20.9825989 L37.3060102,20.9825989 C37.1807673,20.1033624 36.9920655,19.234341 36.7413831,18.3823428 L36.7413831,18.3823428 C36.7017602,18.2510917 36.660899,18.1198407 36.6187996,17.9885897 L36.6187996,17.9365846 C36.5816531,17.8177157 36.5407919,17.6988468 36.4999308,17.5651194 L36.4664989,17.4685384 L36.3550593,17.163937 L36.2993396,17.0190656 L36.199044,16.7664693 L36.1173216,16.5695927 L36.0355993,16.3727162 L35.9278744,16.1238345 L35.8647253,15.9826778 L35.7272832,15.6855056 L35.6827074,15.596354 L35.5155481,15.2583207 L35.4895455,15.2100302 L35.2963836,14.8385651 L35.2963836,14.8385651 C34.9783036,14.2528926 34.62861,13.6849506 34.2488519,13.1372546 L26.1657698,21.2203366 C26.3514719,21.7594108 26.4760737,22.3176272 26.537235,22.8845006 L37.4397376,22.8845006 C37.436023,22.8176369 37.436023,22.7656317 37.4323083,22.709912 L37.4323083,22.709912 Z" id="Shape" fill-opacity="0.9" fill="#2E3748"></path>
                                <path d="M26.5000885,23.616287 L26.5000885,23.9877521 C26.5000885,24.1103356 26.5000885,24.2366338 26.4815152,24.3592173 C26.337689,25.8234019 25.7623728,27.2119176 24.8284952,28.3487532 C24.7504875,28.4453341 24.6613359,28.5344858 24.5796136,28.6236374 C24.4978912,28.7127891 24.4198835,28.80937 24.3307319,28.8985216 L32.0757806,36.6435704 C32.1649323,36.5544187 32.2466546,36.4652671 32.3320916,36.3761155 L32.5884026,36.1086605 C33.1542112,35.4959138 33.6779338,34.8456042 34.1559856,34.1621831 L34.2117053,34.0841754 L34.3825793,33.8352937 L34.5311654,33.6087 L34.6017438,33.4972604 C36.3441122,30.7557821 37.3285043,27.6013695 37.4545962,24.3555026 L37.4545962,23.9840375 L37.4545962,23.6125723 L26.5000885,23.6125723 L26.5000885,23.616287 Z" id="Shape" fill-opacity="0.8" fill="#2E3748"></path>
                                <path d="M40.7086311,1.93757981 C38.932091,0.159363203 36.1287736,-0.0697010952 34.0871242,1.39652412 C32.0454747,2.86274934 31.3669334,5.59233551 32.4843923,7.84387597 L21.3070054,19.0212628 C19.0558855,17.9038931 16.3267345,18.581892 14.8602273,20.6228262 C13.3937201,22.6637605 13.6217181,25.4666099 15.3988022,27.243694 C17.1758864,29.0207782 19.9787357,29.2487761 22.01967,27.7822689 C24.0606043,26.3157618 24.7386032,23.5866107 23.6212334,21.3354908 L34.7986203,10.158104 C37.0492707,11.2751215 39.7777495,10.5975973 41.24444,8.55750549 C42.7111305,6.51741372 42.4843256,3.7152368 40.7086311,1.93757981 L40.7086311,1.93757981 Z" id="Shape" fill="#2E3748"></path>
                            </g>
                        </g>
                    </g>
                </g>
                <g id="raml-file" transform="translate(88.688480, 51.672367) rotate(-31.000000) translate(-88.688480, -51.672367) translate(60.188480, 15.672367)">
                    <mask id="mask-21" fill="white">
                        <use xlink:href="#path-19"></use>
                    </mask>
                    <g id="Rectangle-3" stroke="#2E3748" mask="url(#mask-20)" stroke-width="2" fill="#EAF0F9">
                        <use mask="url(#mask-22)" xlink:href="#path-19"></use>
                    </g>
                    <g id="Rectangle-4" mask="url(#mask-21)" stroke-width="2" stroke="#2E3748">
                        <use mask="url(#mask-24)" xlink:href="#path-23"></use>
                    </g>
                    <g id="raml-square-logo" mask="url(#mask-21)">
                        <g transform="translate(10.500000, 40.732220)" id="raml-squared">
                            <g>
                                <g id="Page-1" fill="#2E3748">
                                    <g id="raml-squared">
                                        <g id="raml-logo">
                                            <path d="M5.47163003,0.130695467 L5.68434189e-14,0.130695467 L0.545583435,1.00643132 L5.44070358,1.00643132 C6.03855547,1.00643132 6.60152388,1.24633429 7.0258179,1.68196422 C7.44844154,2.11582647 7.68116023,2.68800632 7.68116023,3.29307493 C7.68116023,3.8876347 7.4585125,4.42306609 7.03725112,4.84142456 C6.63611545,5.23986816 6.07699054,5.50184291 5.46201315,5.57973475 L4.86291253,5.57973475 L3.21059358,5.56653385 L3.68751284,6.39241762 L4.41187613,6.39241762 L4.45117072,6.45548682 L4.45692787,6.45548682 L6.59017175,10.0571289 L6.60006432,10.0738814 L6.61384905,10.0876661 C6.70679058,10.1805428 6.82329588,10.225708 6.96996542,10.225708 C7.22094482,10.225708 7.4329702,10.0065795 7.4329702,9.74723193 C7.4329702,9.64434918 7.39941655,9.59775679 7.358857,9.55158605 C7.34236398,9.53280638 7.32188149,9.50942099 7.29087395,9.45663358 L5.52736899,6.4550003 C6.34730101,6.4407777 7.11404018,6.11406336 7.69165284,5.5313098 C8.28204476,4.93567969 8.60718602,4.14077101 8.60718602,3.29307493 C8.60718602,1.54932268 7.20057586,0.130695467 5.47163003,0.130695467 L5.47163003,0.130695467 L5.47163003,0.130695467 L5.47163003,0.130695467 Z" id="Shape"></path>
                                            <path d="M12.8363415,0.219696177 C12.7662177,0.0840544243 12.6142451,0 12.4382385,0 C12.2787572,0 12.1201193,0.0859680693 12.0434113,0.213922807 L11.9957324,0.29671228 C11.9330848,0.405514351 11.9681467,0.563406281 12.0306483,0.671592093 L12.7798403,1.96782711 L15.647713,6.95152631 L15.522872,6.95152631 L15.5267318,6.95830516 L11.8366404,6.95830516 L12.3700121,7.88997458 L16.1875718,7.88997458 L17.3409159,9.88606849 L17.343689,9.890658 C17.4148507,10.0044712 17.5339183,10.1949276 17.7832436,10.1949276 C18.0386503,10.1949276 18.246443,9.98716733 18.246443,9.73180925 C18.246443,9.64400862 18.2244036,9.56906833 18.1771787,9.49649578 L12.8363415,0.219696177 L12.8363415,0.219696177 L12.8363415,0.219696177 L12.8363415,0.219696177 Z" id="Shape"></path>
                                            <path d="M35.2799269,9.26883689 L30.3564264,9.26883689 L30.3564264,0.462907484 C30.3564264,0.207662918 30.1487311,1.13686838e-13 29.8934379,1.13686838e-13 C29.6381609,1.13686838e-13 29.4304169,0.207662918 29.4304169,0.462907484 L29.4304169,9.73180925 C29.4304169,9.98716733 29.6381446,10.1949276 29.8934379,10.1949276 L35.8150339,10.1949276 L35.2799269,9.26883689 L35.2799269,9.26883689 L35.2799269,9.26883689 L35.2799269,9.26883689 Z" id="Shape"></path>
                                            <path d="M25.6161007,0.451604004 C25.6100516,0.201581419 25.4049024,0 25.1533716,0 C25.1416465,0 25.1302457,0.00056760657 25.1190071,0.00145955975 C25.107509,0.00056760657 25.095946,0 25.0843831,0 C24.9081494,0 24.7560146,0.0842165976 24.6860692,0.220117828 L21.6288267,5.59347083 L18.5716653,0.22010161 C18.5016713,0.0842003803 18.3495365,0 18.1733677,0 C18.0138864,0 17.8552161,0.0859680693 17.7785568,0.213922807 L17.7308454,0.296744715 C17.6683924,0.405190004 17.7027732,0.563000848 17.7644801,0.671283964 L21.1732819,6.65223548 L21.1765092,6.65761963 C21.2477032,6.77143286 21.3668033,6.96188919 21.6161123,6.96188919 C21.6203937,6.96188919 21.6245778,6.96169458 21.6288429,6.96154862 C21.6330919,6.96171079 21.6373084,6.96188919 21.6415898,6.96188919 C21.8908988,6.96188919 22.0100151,6.77143286 22.0811605,6.65761963 L24.6903182,2.08000238 L24.6903182,9.7318579 C24.6903182,9.98721598 24.8980622,10.1949762 25.1533392,10.1949762 C25.4086324,10.1949762 25.6163764,9.98721598 25.6163764,9.7318579 L25.6163764,0.462907484 C25.6163764,0.460474884 25.616198,0.458058502 25.6161656,0.455625902 L25.6172684,0.45369604 L25.6161007,0.451604004 L25.6161007,0.451604004 L25.6161007,0.451604004 L25.6161007,0.451604004 Z" id="Shape"></path>
                                        </g>
                                    </g>
                                </g>
                            </g>
                        </g>
                    </g>
                </g>
                <g id="paw-file" transform="translate(118.500000, 0.403342)">
                    <mask id="mask-27" fill="white">
                        <use xlink:href="#path-25"></use>
                    </mask>
                    <g id="Rectangle-3" stroke="#2E3748" mask="url(#mask-26)" stroke-width="2" fill="#EAF0F9">
                        <use mask="url(#mask-28)" xlink:href="#path-25"></use>
                    </g>
                    <g id="Rectangle-4" mask="url(#mask-27)" stroke-width="2" stroke="#2E3748">
                        <use mask="url(#mask-30)" xlink:href="#path-29"></use>
                    </g>
                    <g id="paw-square-logo" mask="url(#mask-27)">
                        <g transform="translate(15.000000, 26.809634)" id="paw-squared">
                            <g>
                                <g id="Page-1" fill="#2E3748">
                                    <g id="paw-squared">
                                        <g id="paw-footer-icon">
                                            <path d="M26.6985437,27.9441609 C26.3087974,26.4298489 25.448375,26.6204989 24.8787619,26.6887056 C24.6543939,26.7156185 24.4606591,26.7390388 24.349717,26.6802824 C23.9285095,26.3427415 22.7027648,23.5088765 21.8073625,20.5673599 C21.0181419,17.9750945 22.8729036,15.6536015 22.8729036,11.4182121 C22.8729036,3.70222669 16.7027834,0.0934349569 16.7027834,0.0934349569 C16.7027834,0.0934349569 17.774948,3.84726863 17.3527056,5.35007585 C17.3527056,5.35007585 16.4691013,3.10213101 15.0262329,2.2731731 C15.4379192,6.98169511 13.9346122,7.94665553 9.85562668,8.78095493 C11.3843924,9.91540489 12.8624477,10.2640397 15.7291423,10.2640397 C21.3857411,10.2640397 23.5549078,14.7510954 19.075413,20.3481534 C20.4460449,23.4940847 22.9521775,27.61833 23.2498171,27.9279309 C23.9442402,28.6498536 25.5218536,28.6145175 26.5213675,28.2636229 C26.6590102,28.2153441 26.7329027,28.0770817 26.6985437,27.9441609" id="Fill-1"></path>
                                            <path d="M5.35800029,27.7185856 C5.95783283,28.8723471 7.83867422,28.7145678 10.8577072,28.3612079 C12.295815,28.1931563 13.9313833,28.0020954 15.6087618,28.0201742 C13.3205807,20.7165107 15.9502813,19.682111 17.7125222,16.7792175 C20.0994336,12.8474711 17.4546234,11.6170798 15.7544768,11.6170798 C14.7371624,19.1081064 3.25982827,14.3615776 5.35800029,27.7185856" id="Fill-3"></path>
                                            <path d="M4.81815101,35.96155 C6.55617511,35.96155 8.61522761,35.6687953 10.7949504,35.3591944 C15.4197463,34.701986 20.6073249,33.9648605 25.3503073,35.5017711 C21.9696776,28.4306677 15.916088,29.1388258 10.9998621,29.713652 C8.12716512,30.049755 5.62186038,30.3427151 4.48449673,28.7624563 C2.1507797,28.8964044 0.304504243,30.4228375 0.304504243,32.2798263 C0.304504243,34.2754886 2.37142204,35.96155 4.81815101,35.96155" id="Fill-5"></path>
                                        </g>
                                    </g>
                                </g>
                            </g>
                        </g>
                    </g>
                </g>
                <path d="M186.125195,115.425623 C182.424163,97.449182 166.562597,83.7024919 147,83.7024919 C131.667153,83.7024919 118.449182,92.1619935 112.104556,104.851246 C95.7142714,106.966121 83.5537379,120.184093 83.5537379,136.574377 C83.5537379,154.022099 97.8291468,168.297508 115.276869,168.297508 L184.01032,168.297508 C198.814447,168.297508 210.446262,156.665693 210.446262,141.861566 C210.446262,128.114875 199.343166,116.483061 186.125195,115.425623 L186.125195,115.425623 L186.125195,115.425623 Z M157.574377,131.287189 L157.574377,152.435943 L136.425623,152.435943 L136.425623,131.287189 L120.564057,131.287189 L147,104.851246 L173.435943,131.287189 L157.574377,131.287189 L157.574377,131.287189 L157.574377,131.287189 Z" id="Shape" fill="#737786"></path>
            </g>
        </g>
    </g>
</svg>