<?xml version="1.0" encoding="UTF-8" standalone="no"?>
<svg width="286px" height="169px" viewBox="0 0 286 169" version="1.1" xmlns="http://www.w3.org/2000/svg" xmlns:xlink="http://www.w3.org/1999/xlink">
    <!-- Generator: Sketch 39.1 (31720) - http://www.bohemiancoding.com/sketch -->
    <title>Central zone</title>
    <desc>Created with Sketch.</desc>
    <defs>
        <path d="M-8.52651283e-14,3.99941455 C-8.52651283e-14,1.79059889 1.79078177,-2.13162821e-13 3.99987364,-2.13162821e-13 L38.7392837,-2.13162821e-13 L57,18.7910223 L57,68.0006786 C57,70.2094428 55.1999609,72 52.9918707,72 L4.00812931,72 C1.79450062,72 -8.52651283e-14,70.2022516 -8.52651283e-14,68.0005854 L-8.52651283e-14,3.99941455 Z" id="path-1"></path>
        <mask id="mask-2" maskContentUnits="userSpaceOnUse" maskUnits="objectBoundingBox" x="0" y="0" width="57" height="72" fill="white">
            <use xlink:href="#path-1"></use>
        </mask>
        <mask id="mask-4" maskContentUnits="userSpaceOnUse" maskUnits="objectBoundingBox" x="0" y="0" width="57" height="72" fill="white">
            <use xlink:href="#path-1"></use>
        </mask>
        <rect id="path-5" x="38" y="-2.25888171" width="21.0469566" height="21.2588817" rx="4"></rect>
        <mask id="mask-6" maskContentUnits="userSpaceOnUse" maskUnits="objectBoundingBox" x="0" y="0" width="21.0469566" height="21.2588817" fill="white">
            <use xlink:href="#path-5"></use>
        </mask>
        <path d="M-2.84217094e-14,3.99941455 C-2.84217094e-14,1.79059889 1.79078177,-2.84217094e-14 3.99987364,-2.84217094e-14 L38.7392837,-2.84217094e-14 L57,18.7910223 L57,68.0006786 C57,70.2094428 55.1999609,72 52.9918707,72 L4.00812931,72 C1.79450062,72 -2.84217094e-14,70.2022516 -2.84217094e-14,68.0005854 L-2.84217094e-14,3.99941455 Z" id="path-7"></path>
        <mask id="mask-8" maskContentUnits="userSpaceOnUse" maskUnits="objectBoundingBox" x="0" y="0" width="57" height="72" fill="white">
            <use xlink:href="#path-7"></use>
        </mask>
        <mask id="mask-10" maskContentUnits="userSpaceOnUse" maskUnits="objectBoundingBox" x="0" y="0" width="57" height="72" fill="white">
            <use xlink:href="#path-7"></use>
        </mask>
        <rect id="path-11" x="38" y="-2.25888171" width="21.0469566" height="21.2588817" rx="4"></rect>
        <mask id="mask-12" maskContentUnits="userSpaceOnUse" maskUnits="objectBoundingBox" x="0" y="0" width="21.0469566" height="21.2588817" fill="white">
            <use xlink:href="#path-11"></use>
        </mask>
        <path d="M1.42108547e-13,3.99941455 C1.42108547e-13,1.79059889 1.79078177,-7.10542736e-14 3.99987364,-7.10542736e-14 L38.7392837,-7.10542736e-14 L57,18.7910223 L57,68.0006786 C57,70.2094428 55.1999609,72 52.9918707,72 L4.00812931,72 C1.79450062,72 1.42108547e-13,70.2022516 1.42108547e-13,68.0005854 L1.42108547e-13,3.99941455 Z" id="path-13"></path>
        <mask id="mask-14" maskContentUnits="userSpaceOnUse" maskUnits="objectBoundingBox" x="0" y="0" width="57" height="72" fill="white">
            <use xlink:href="#path-13"></use>
        </mask>
        <mask id="mask-16" maskContentUnits="userSpaceOnUse" maskUnits="objectBoundingBox" x="0" y="0" width="57" height="72" fill="white">
            <use xlink:href="#path-13"></use>
        </mask>
        <rect id="path-17" x="38" y="-2.25888171" width="21.0469566" height="21.2588817" rx="4"></rect>
        <mask id="mask-18" maskContentUnits="userSpaceOnUse" maskUnits="objectBoundingBox" x="0" y="0" width="21.0469566" height="21.2588817" fill="white">
            <use xlink:href="#path-17"></use>
        </mask>
        <path d="M3.90798505e-14,3.99941455 C3.90798505e-14,1.79059889 1.79078177,1.70530257e-13 3.99987364,1.70530257e-13 L38.7392837,1.70530257e-13 L57,18.7910223 L57,68.0006786 C57,70.2094428 55.1999609,72 52.9918707,72 L4.00812931,72 C1.79450062,72 3.90798505e-14,70.2022516 3.90798505e-14,68.0005854 L3.90798505e-14,3.99941455 Z" id="path-19"></path>
        <mask id="mask-20" maskContentUnits="userSpaceOnUse" maskUnits="objectBoundingBox" x="0" y="0" width="57" height="72" fill="white">
            <use xlink:href="#path-19"></use>
        </mask>
        <mask id="mask-22" maskContentUnits="userSpaceOnUse" maskUnits="objectBoundingBox" x="0" y="0" width="57" height="72" fill="white">
            <use xlink:href="#path-19"></use>
        </mask>
        <rect id="path-23" x="38" y="-2.25888171" width="21.0469566" height="21.2588817" rx="4"></rect>
        <mask id="mask-24" maskContentUnits="userSpaceOnUse" maskUnits="objectBoundingBox" x="0" y="0" width="21.0469566" height="21.2588817" fill="white">
            <use xlink:href="#path-23"></use>
        </mask>
        <path d="M0,3.99941455 C0,1.79059889 1.79078177,0 3.99987364,0 L38.7392837,0 L57,18.7910223 L57,68.0006786 C57,70.2094428 55.1999609,72 52.9918707,72 L4.00812931,72 C1.79450062,72 0,70.2022516 0,68.0005854 L0,3.99941455 Z" id="path-25"></path>
        <mask id="mask-26" maskContentUnits="userSpaceOnUse" maskUnits="objectBoundingBox" x="0" y="0" width="57" height="72" fill="white">
            <use xlink:href="#path-25"></use>
        </mask>
        <mask id="mask-28" maskContentUnits="userSpaceOnUse" maskUnits="objectBoundingBox" x="0" y="0" width="57" height="72" fill="white">
            <use xlink:href="#path-25"></use>
        </mask>
        <rect id="path-29" x="38" y="-2.25888171" width="21.0469566" height="21.2588817" rx="4"></rect>
        <mask id="mask-30" maskContentUnits="userSpaceOnUse" maskUnits="objectBoundingBox" x="0" y="0" width="21.0469566" height="21.2588817" fill="white">
            <use xlink:href="#path-29"></use>
        </mask>
    </defs>
    <g id="Console.rest" stroke="none" stroke-width="1" fill="none" fill-rule="evenodd">
        <g id="Feedback-v2" transform="translate(-494.000000, -246.000000)">
            <g id="screen">
                <g id="Import-section" transform="translate(286.000000, 131.000000)">
                    <g id="Drag-Drop-Area" transform="translate(0.000000, 37.389994)">
                        <g id="Central-zone" transform="translate(207.000000, 78.000000)">
                            <g id="upload-icons">
                                <g id="postman-file" transform="translate(45.717842, 94.354091) rotate(-60.000000) translate(-45.717842, -94.354091) translate(17.217842, 58.354091)">
                                    <mask id="mask-3" fill="white">
                                        <use xlink:href="#path-1"></use>
                                    </mask>
                                    <g id="Rectangle-3" stroke="#2E3748" mask="url(#mask-2)" stroke-width="2" fill="#EAF0F9">
                                        <use mask="url(#mask-4)" xlink:href="#path-1"></use>
                                    </g>
                                    <g id="Rectangle-4" mask="url(#mask-3)" stroke-width="2" stroke="#2E3748">
                                        <use mask="url(#mask-6)" xlink:href="#path-5"></use>
                                    </g>
                                    <g id="postman-square-logo" mask="url(#mask-3)">
                                        <g transform="translate(10.500000, 26.486641)" id="Postman-squared">
                                            <g>
                                                <g id="Page-1">
                                                    <g id="Postman-squared" transform="translate(-0.000000, -0.000000)">
                                                        <g id="postman-logo-2">
                                                            <path d="M35.8263248,19.2918762 C34.6240185,28.6661969 26.0492548,35.289215 16.6764842,34.085617 C7.30216357,32.8830524 0.679145465,24.308547 1.88145175,14.934743 C3.08453305,5.56119743 11.6574884,-1.0625957 21.032584,0.141260619 C30.406388,1.34330858 37.0309561,9.91858895 35.8263248,19.2918762" id="Fill-18" fill="#2E3748"></path>
                                                            <g id="fills" transform="translate(0.000000, 5.000000)" fill="#2E3748">
                                                                <polygon id="Fill-16" points="6.47137354 31.0208031 1.42108547e-14 31.2450407 3.31732166 27.8721763"></polygon>
                                                                <path d="M23.2173249,7.25618857 L12.9605207,17.6028944 L12.9811878,17.582744 L12.9773127,17.5842941 L10.4324225,15.0768629 C15.7397238,8.47657853 19.1707143,7.2455967 19.1707143,7.2455967 C19.1707143,7.2455967 21.4043069,6.37370506 22.9977374,7.05029297 C23.1201897,7.11591089 23.1734074,7.15388662 23.2173249,7.25618857" id="Fill-29"></path>
                                                                <path d="M15.8549168,20.4473537 C13.4079368,22.4626506 10.2763603,25.6283277 6.01972075,27.8363448 L6.96653049,31.8837304 L2.95350388,27.9311549 L12.9604949,17.6027911" id="Fill-33"></path>
                                                                <polygon id="Fill-37" points="10.5016055 15.111041 12.9873363 17.5872133 7.24421829 18.831112 10.4463211 15.0663485"></polygon>
                                                                <path d="M22.2380679,4.25326458 C21.9944549,6.4543066 23.5788435,8.43576109 25.7801438,8.68144078 C27.9793775,8.92557044 29.962382,7.33963183 30.2078033,5.13962316 C30.452708,2.93909782 28.8654777,0.955576625 26.6652107,0.710930288 C24.4639103,0.46783398 22.4821975,2.05196422 22.2380679,4.25326458" id="Fill-41"></path>
                                                                <path d="M29.6321223,6.91182366 C30.3717448,5.8311947 30.3335107,4.21451384 30.1847079,3.73555469 C30.0028378,3.14938517 29.59518,2.19534196 28.8842331,1.69959083 L25.1248946,5.16235693 C25.1248946,5.16235693 28.0141498,8.26654952 28.0893262,8.27688306 C28.1205852,8.28049979 28.9576011,7.89712581 29.6321223,6.91182366" id="Fill-45"></path>
                                                                <polyline id="Fill-51" points="14.7712395 19.298446 10.6220686 20.0367767 13.1266581 17.4347937"></polyline>
                                                                <path d="M12.9605983,17.6028428 L23.2006104,7.21919453 C23.720387,7.83636465 23.8306974,8.50132734 23.6800862,9.4489121 C23.5785593,10.104833 22.4452293,11.416158 22.4452293,11.416158 L14.6826811,19.2967668" id="Fill-25"></path>
                                                                <path d="M23.2173249,7.24861926 C24.3418714,8.44395041 23.2320502,11.270171 23.2320502,11.270171 C23.2320502,11.270171 22.1351459,15.265889 15.8549427,20.4473796 L14.6826036,19.296741 L22.6546641,11.148752 L22.8088921,10.9407897 C23.0209878,10.5951331 23.1966578,7.22536882 23.2173249,7.24861926" id="Fill-21"></path>
                                                            </g>
                                                            <g id="strokes" transform="translate(2.000000, 5.000000)" stroke="#EAF0F9" stroke-width="0.5">
                                                                <path d="M21.2320502,11.270171 C21.2320502,11.270171 20.1351459,15.265889 13.8549427,20.4473796 L12.6826036,19.296741 L20.6546641,11.148752 L21.5677564,9.91113485 C21.7798522,9.56547826 21.2320502,11.270171 21.2320502,11.270171 Z" id="Stroke-23"></path>
                                                                <path d="M10.9605983,17.6028428 L21.2006104,7.21919453 C21.720387,7.83636465 21.8306974,8.50132734 21.6800862,9.4489121 C21.5785593,10.104833 20.4452293,11.416158 20.4452293,11.416158 L12.6826811,19.2967668" id="Stroke-27"></path>
                                                                <path d="M21.2173249,7.25618857 L10.9605207,17.6028944 L10.9811878,17.582744 L10.9773127,17.5842941 L8.43242249,15.0768629 C13.7397238,8.47657853 17.1707143,7.2455967 17.1707143,7.2455967 C17.1707143,7.2455967 19.4043069,6.37370506 20.9977374,7.05029297 C21.1201897,7.11591089 21.1734074,7.15388662 21.2173249,7.25618857 L21.2173249,7.25618857 L21.2173249,7.25618857 L21.2173249,7.25618857 L21.2173249,7.25618857 Z" id="Stroke-31"></path>
                                                                <path d="M13.8549168,20.4473537 C11.4079368,22.4626506 8.27636034,25.6283277 4.01972075,27.8363448 L4.96653049,31.8837304 L0.953503882,27.9311549 L10.9604949,17.6027911" id="Stroke-35"></path>
                                                                <polygon id="Stroke-39" points="8.50160548 15.111041 10.9873363 17.5872133 5.24421829 18.831112 8.44632109 15.0663485"></polygon>
                                                                <path d="M20.2380679,4.25326458 C19.9944549,6.4543066 21.5788435,8.43576109 23.7801438,8.68144078 C25.9793775,8.92557044 27.962382,7.33963183 28.2078033,5.13962316 C28.452708,2.93909782 26.8654777,0.955576625 24.6652107,0.710930288 C22.4639103,0.46783398 20.4821975,2.05196422 20.2380679,4.25326458 L20.2380679,4.25326458 L20.2380679,4.25326458 L20.2380679,4.25326458 L20.2380679,4.25326458 Z" id="Stroke-43"></path>
                                                                <path d="M27.6321223,6.91182366 C28.3717448,5.8311947 28.3335107,4.21451384 28.1847079,3.73555469 C28.0028378,3.14938517 27.59518,2.19534196 26.8842331,1.69959083 L23.1248946,5.16235693 C23.1248946,5.16235693 26.0141498,8.26654952 26.0893262,8.27688306 C26.1205852,8.28049979 26.9576011,7.89712581 27.6321223,6.91182366 L27.6321223,6.91182366 L27.6321223,6.91182366 L27.6321223,6.91182366 L27.6321223,6.91182366 Z" id="Stroke-47"></path>
                                                                <path d="M26.9643768,4.19927188 C26.9643768,4.19927188 27.6638768,5.08692216 26.7763768,5.77746034" id="Stroke-49"></path>
                                                                <polyline id="Stroke-53" points="12.7712395 19.298446 8.62206861 20.0367767 11.1266581 17.4347937"></polyline>
                                                                <path d="M8.59783648,15.1292022 L13.8723288,20.093172" id="Stroke-55"></path>
                                                            </g>
                                                        </g>
                                                    </g>
                                                </g>
                                            </g>
                                        </g>
                                    </g>
                                </g>
                                <g id="curl-file" transform="translate(249.776330, 96.208975) rotate(60.000000) translate(-249.776330, -96.208975) translate(221.276330, 60.208975)">
                                    <mask id="mask-9" fill="white">
                                        <use xlink:href="#path-7"></use>
                                    </mask>
                                    <g id="Rectangle-3" stroke="#2E3748" mask="url(#mask-8)" stroke-width="2" fill="#EAF0F9">
                                        <use mask="url(#mask-10)" xlink:href="#path-7"></use>
                                    </g>
                                    <g id="Rectangle-4" mask="url(#mask-9)" stroke-width="2" stroke="#2E3748">
                                        <use mask="url(#mask-12)" xlink:href="#path-11"></use>
                                    </g>
                                    <g id="curl-square-logo" mask="url(#mask-9)">
                                        <g transform="translate(12.523478, 41.355732)" id="curl-square-icon">
                                            <g>
                                                <g id="Page-1" fill="#2E3748">
                                                    <g id="curl-square-icon">
                                                        <g id="curl-icon">
                                                            <path d="M3.75180355,6.52016664 C3.53807387,6.64436094 3.31784895,6.73750522 3.0911222,6.79960238 C2.86439545,6.86169952 2.63261775,6.89274761 2.39578217,6.89274761 C1.64484006,6.89274761 1.05781431,6.66746836 0.63468732,6.21690308 C0.211560324,5.76633783 0,5.14248758 0,4.34533366 C0,3.54817971 0.211560324,2.92432949 0.63468732,2.47376423 C1.05781431,2.02319896 1.64484006,1.79791971 2.39578217,1.79791971 C2.62972951,1.79791971 2.85789696,1.82824576 3.08029136,1.88889878 C3.30268574,1.94955179 3.5265209,2.04341815 3.75180355,2.17050066 L3.75180355,3.00664163 C3.54096211,2.81890611 3.32940177,2.68316091 3.11711622,2.59940199 C2.90483066,2.51564306 2.66438838,2.47376423 2.39578217,2.47376423 C1.89611684,2.47376423 1.51198683,2.63550318 1.24338062,2.95898593 C0.974774404,3.28246868 0.84047331,3.74457999 0.84047331,4.34533366 C0.84047331,4.9431991 0.975496453,5.40458833 1.24554678,5.72951523 C1.51559712,6.05444209 1.89900508,6.21690308 2.39578217,6.21690308 C2.6730531,6.21690308 2.92143791,6.17430221 3.14094407,6.08909915 C3.36045022,6.0038961 3.56406799,5.87176116 3.75180355,5.69269036 L3.75180355,6.52016664 L3.75180355,6.52016664 L3.75180355,6.52016664 Z M5.34177109,4.9301991 L5.34177109,1.92355747 L6.13892102,1.92355747 L6.13892102,4.9301991 C6.13892102,5.36632318 6.21618027,5.68691286 6.37070102,5.89197786 C6.52522181,6.09704282 6.76422,6.19957374 7.08770274,6.19957374 C7.46317381,6.19957374 7.75054928,6.06743881 7.94983775,5.80316492 C8.14912623,5.53889107 8.24876899,5.15981541 8.24876899,4.66592656 L8.24876899,1.92355747 L9.05025125,1.92355747 L9.05025125,6.76710984 L8.24876899,6.76710984 L8.24876899,6.03927728 C8.10724529,6.31943645 7.91445821,6.53171883 7.67040205,6.67613078 C7.42634584,6.82054273 7.14113654,6.89274761 6.81476555,6.89274761 C6.31798846,6.89274761 5.94829942,6.73028662 5.70568737,6.40535972 C5.46307529,6.08043286 5.34177109,5.58871758 5.34177109,4.9301991 L5.34177109,4.9301991 L5.34177109,4.9301991 L5.34177109,4.9301991 Z M14.8425854,2.91566256 C14.6721793,2.78280358 14.4988875,2.68604902 14.3227049,2.62539601 C14.1465224,2.56474299 13.9530133,2.53441694 13.7421718,2.53441694 C13.2453948,2.53441694 12.865597,2.6903795 12.6027673,3.0023093 C12.3399376,3.31423911 12.2085247,3.7647976 12.2085247,4.35399831 L12.2085247,6.76710984 L11.4070424,6.76710984 L11.4070424,1.9148928 L12.2085247,1.9148928 L12.2085247,2.86367452 C12.3413837,2.5199741 12.5457235,2.25642625 12.8215503,2.07302309 C13.0973771,1.88961992 13.4244653,1.79791971 13.8028245,1.79791971 C13.9992248,1.79791971 14.1826252,1.82246937 14.3530313,1.87156943 C14.5234374,1.92066949 14.6866205,1.99720667 14.8425854,2.10118327 L14.8425854,2.91566256 L14.8425854,2.91566256 L14.8425854,2.91566256 Z M18.2954577,5.01251351 C18.2954577,5.37065514 18.3611641,5.64070142 18.492579,5.82266045 C18.6239938,6.00461949 18.818225,6.09559767 19.0752783,6.09559767 L20.0067306,6.09559767 L20.0067306,6.76710984 L18.9972962,6.76710984 C18.5207368,6.76710984 18.1517698,6.61475752 17.8903842,6.31004834 C17.6289986,6.00533912 17.4983077,5.57283186 17.4983077,5.01251351 L17.4983077,0.623856477 L16.2202684,0.623856477 L16.2202684,0 L18.2954577,0 L18.2954577,5.01251351 L18.2954577,5.01251351 L18.2954577,5.01251351 Z M22.3808511,1.91922513 L23.7325401,1.91922513 L23.7325401,3.48319865 L22.3808511,3.48319865 L22.3808511,1.91922513 L22.3808511,1.91922513 L22.3808511,1.91922513 Z M22.3808511,5.19013931 L23.7325401,5.19013931 L23.7325401,6.76710984 L22.3808511,6.76710984 L22.3808511,5.19013931 L22.3808511,5.19013931 L22.3808511,5.19013931 Z M29.7154971,0.298931228 L30.538641,0.298931228 L27.1334244,7.59025379 L26.3059481,7.59025379 L29.7154971,0.298931228 L29.7154971,0.298931228 L29.7154971,0.298931228 Z M35.0572682,0.298931228 L35.8804121,0.298931228 L32.4751955,7.59025379 L31.6477192,7.59025379 L35.0572682,0.298931228 L35.0572682,0.298931228 L35.0572682,0.298931228 Z" id="curl://"></path>
                                                        </g>
                                                    </g>
                                                </g>
                                            </g>
                                        </g>
                                    </g>
                                </g>
                                <g id="swagger-file" transform="translate(206.094606, 51.782061) rotate(30.000000) translate(-206.094606, -51.782061) translate(177.594606, 15.782061)">
                                    <mask id="mask-15" fill="white">
                                        <use xlink:href="#path-13"></use>
                                    </mask>
                                    <g id="Rectangle-3" stroke="#2E3748" mask="url(#mask-14)" stroke-width="2" fill="#EAF0F9">
                                        <use mask="url(#mask-16)" xlink:href="#path-13"></use>
                                    </g>
                                    <g id="Rectangle-4" mask="url(#mask-15)" stroke-width="2" stroke="#2E3748">
                                        <use mask="url(#mask-18)" xlink:href="#path-17"></use>
                                    </g>
                                    <g id="OAI-Logo-Gray" mask="url(#mask-15)">
                                        <g transform="translate(10.000000, 26.451794)">
                                            <g transform="translate(0.000000, -0.000000)">
                                                <g id="Page-1" transform="translate(0.000000, 0.000000)" fill="#2E3748">
                                                    <g id="OAI-Logo-Gray" transform="translate(0.000000, 0.000000)">
                                                        <path d="M4.95121404,0.24732724 C5.4306392,0.0869045522 5.94374841,5.68434189e-14 6.47715527,5.68434189e-14 C9.13123215,5.68434189e-14 11.2827866,2.15155444 11.2827866,4.80563133 C11.2827866,7.45970821 9.13123215,9.61126265 6.47715527,9.61126265 C3.82307838,9.61126265 1.67152394,7.45970821 1.67152394,4.80563133 C1.67152394,3.76363335 2.00315797,2.79909266 2.56663554,2.01179975 L3.26741293,2.46904871 C2.78937196,3.12460411 2.50728591,3.93217536 2.50728591,4.80563133 C2.50728591,6.99812962 4.28465697,8.77550068 6.47715527,8.77550068 C8.66965356,8.77550068 10.4470246,6.99812962 10.4470246,4.80563133 C10.4470246,2.61313303 8.66965356,0.83576197 6.47715527,0.83576197 C6.06420131,0.83576197 5.66597406,0.898814569 5.29157564,1.01581761 L4.95121404,0.24732724 L4.95121404,0.24732724 Z" id="Combined-Shape"></path>
                                                        <path d="M11.1125694,22.5655732 L7.52328605,22.5655732 C6.9463128,22.5655732 6.47858358,23.0333024 6.47858358,23.6102757 C6.47858358,24.1872489 6.9463128,24.6549781 7.52328605,24.6549781 L12.0990495,24.6549781 L13.9662842,28.6098572 C14.2372514,29.1837767 14.9221673,29.429368 15.4960868,29.1584009 C16.0700062,28.8874337 16.3155975,28.2025178 16.0446304,27.6285984 L9.04645016,12.806168 C8.62852191,11.9209789 7.36593781,11.9302304 6.96102593,12.8214487 L0.226673903,27.643879 C-0.0358539587,28.2217076 0.21974776,28.9029511 0.797576319,29.1654789 C1.37540488,29.4280068 2.05664836,29.1724051 2.3191762,28.5945765 L8.0320317,16.040869 L11.1125694,22.5655732 L11.1125694,22.5655732 Z" id="Combined-Shape"></path>
                                                        <path d="M25.0744709,12.1185488 C28.1893856,12.1194197 30.7142524,14.6448237 30.7142524,17.7599419 C30.7142524,20.8755973 28.1885146,23.4013352 25.0728591,23.4013352 C24.4958858,23.4013352 24.0281566,22.9336059 24.0281566,22.3566327 C24.0281566,21.7796594 24.4958858,21.3119302 25.0728591,21.3119302 C27.0345681,21.3119302 28.6248475,19.7216509 28.6248475,17.7599419 C28.6248475,15.7982328 27.0345681,14.2079535 25.0728591,14.2079535 L20.4761683,14.2079535 L20.4761683,28.2069665 C20.4761683,28.7839397 20.008439,29.2516689 19.4314658,29.2516689 C18.8544926,29.2516689 18.3867633,28.7839397 18.3867633,28.2069665 L18.3867633,13.163251 C18.3867633,12.5862778 18.8544926,12.1185486 19.4314658,12.1185486 L25.0737773,12.1185486 C25.0740085,12.1185486 25.0742397,12.1185486 25.0744709,12.1185488 L25.0744709,12.1185488 Z" id="Combined-Shape"></path>
                                                        <path d="M35.9377647,13.163251 C35.9377647,12.5862778 35.4700355,12.1185486 34.8930622,12.1185486 C34.316089,12.1185486 33.8483598,12.5862778 33.8483598,13.163251 L33.8483598,28.2069665 C33.8483598,28.7839397 34.316089,29.2516689 34.8930622,29.2516689 C35.4700355,29.2516689 35.9377647,28.7839397 35.9377647,28.2069665 L35.9377647,13.163251 L35.9377647,13.163251 Z" id="Path-4"></path>
                                                        <polygon id="Path-7" points="20.8940492 1.13686838e-13 20.8940492 9.61126265 26.3265021 9.61126265 26.3265021 8.77550068 21.7298112 8.77550068 21.7298112 5.01457182 26.1175616 5.01457182 26.1175616 4.17880985 21.7298112 4.17880985 21.7298112 0.83576197 26.3265021 0.83576197 26.3265021 1.13686838e-13"></polygon>
                                                        <path d="M29.2516689,1.18075319 L34.878369,9.61126265 L35.9377647,9.61126265 L35.9377647,0.417880985 C35.9377647,0.18709169 35.750673,8.52651283e-14 35.5198837,8.52651283e-14 C35.2890944,8.52651283e-14 35.1020027,0.18709169 35.1020027,0.417880985 L35.1021691,8.44119623 L29.4753027,0.000663139514 L28.415907,0.000663139514 L28.415907,9.19338167 C28.415907,9.42417094 28.6029987,9.61126265 28.833788,9.61126265 C29.0645772,9.61126265 29.2516689,9.42417094 29.2516689,9.19338167 L29.2516689,1.18075319 L29.2516689,1.18075319 Z" id="Path-8"></path>
                                                        <path d="M0.835763169,36.8555437 L36.3556469,36.8552998 C36.6342342,36.8552979 36.6342318,36.3555418 36.3556445,36.3555437 L0.835760771,36.3557876 C0.557173446,36.3557895 0.557175845,36.8555456 0.835763169,36.8555437 L0.835763169,36.8555437 Z" id="Path-9"></path>
                                                        <path d="M0.890445617,35.1013498 L0.890445617,32.3546078 L1.47564223,32.3546078 L1.47564223,35.1013498 L0.890445617,35.1013498 L0.890445617,35.1013498 Z M6.69850156,35.1013498 L5.98108478,35.1013498 L4.22059791,32.9125985 L4.20100974,32.9125985 L4.21325235,33.0347177 C4.23610534,33.2676847 4.24753163,33.4806082 4.24753163,33.6734949 L4.24753163,35.1013498 L3.71620252,35.1013498 L3.71620252,32.3546078 L4.4262737,32.3546078 L6.18186356,34.5320865 L6.19655466,34.5320865 C6.19328997,34.5032788 6.18676062,34.3983826 6.17696649,34.2173949 C6.16717236,34.0364071 6.16227538,33.8951886 6.16227538,33.7937353 L6.16227538,32.3546078 L6.69850156,32.3546078 L6.69850156,35.1013498 L6.69850156,35.1013498 Z M8.93906185,35.1013498 L8.93906185,32.3546078 L9.52425845,32.3546078 L9.52425845,35.1013498 L8.93906185,35.1013498 L8.93906185,35.1013498 Z M13.001322,35.1013498 L12.4161254,35.1013498 L12.4161254,32.7397529 L11.3632612,32.7397529 L11.3632612,32.3546078 L14.0541862,32.3546078 L14.0541862,32.7397529 L13.001322,32.7397529 L13.001322,35.1013498 L13.001322,35.1013498 Z M15.898086,35.1013498 L15.898086,32.3546078 L16.4832826,32.3546078 L16.4832826,35.1013498 L15.898086,35.1013498 L15.898086,35.1013498 Z M20.9446518,35.1013498 L20.5871677,34.3385746 L19.2184442,34.3385746 L18.8683057,35.1013498 L18.2512783,35.1013498 L19.5906195,32.3433353 L20.2272351,32.3433353 L21.5665762,35.1013498 L20.9446518,35.1013498 L20.9446518,35.1013498 Z M20.4329109,33.9515508 L20.0974634,33.2038057 C20.0729781,33.1537053 20.0391072,33.0747984 19.9958498,32.9670824 C19.9525923,32.8593665 19.9228023,32.7804595 19.9064788,32.7303591 C19.8624051,32.8844179 19.7979281,33.0528781 19.7130455,33.2357446 L19.3898407,33.9515508 L20.4329109,33.9515508 L20.4329109,33.9515508 Z M24.2209367,35.1013498 L23.63574,35.1013498 L23.63574,32.7397529 L22.5828758,32.7397529 L22.5828758,32.3546078 L25.2738008,32.3546078 L25.2738008,32.7397529 L24.2209367,32.7397529 L24.2209367,35.1013498 L24.2209367,35.1013498 Z M27.1177007,35.1013498 L27.1177007,32.3546078 L27.7028973,32.3546078 L27.7028973,35.1013498 L27.1177007,35.1013498 L27.1177007,35.1013498 Z M31.9830759,32.3546078 L32.5903092,32.3546078 L31.3366662,35.1013498 L30.7196388,35.1013498 L29.4708929,32.3546078 L30.0732292,32.3546078 L30.8200282,34.0623975 C30.8592047,34.1438106 30.9008292,34.2487068 30.9449028,34.3770891 C30.9889764,34.5054715 31.0175422,34.600974 31.030601,34.6635995 C31.0518217,34.5684087 31.0844683,34.4581894 31.1285419,34.3329384 C31.1726155,34.2076873 31.2085268,34.1150029 31.2362768,34.0548824 L31.9830759,32.3546078 L31.9830759,32.3546078 Z M36.383232,35.1013498 L34.3583048,35.1013498 L34.3583048,32.3546078 L36.383232,32.3546078 L36.383232,32.7341167 L34.9435014,32.7341167 L34.9435014,33.4818617 L36.2926367,33.4818617 L36.2926367,33.857613 L34.9435014,33.857613 L34.9435014,34.7199622 L36.383232,34.7199622 L36.383232,35.1013498 L36.383232,35.1013498 Z" id="INITIATIVE-Copy"></path>
                                                        <path d="M16.7152394,4.17926843 L16.7152394,4.17880985 C17.6383966,4.17880985 18.3867633,3.43044309 18.3867633,2.50728591 C18.3867633,1.58412873 17.6383966,0.83576197 16.7152394,0.83576197 L16.7152394,-8.52651283e-14 C18.0999752,-8.52651283e-14 19.2225253,1.12255014 19.2225253,2.50728591 C19.2225253,3.89202168 18.0999752,5.01457182 16.7152394,5.01457182 L16.7152394,4.66683993 L16.7151458,5.0150304 L14.2080845,5.0141132 L14.2083091,4.17835127 L16.7152394,4.17926843 L16.7152394,4.17926843 Z M14.2079535,0.83576197 L16.7152394,0.83576197 L16.7152394,-5.68434189e-14 L13.3721915,-5.68434189e-14 L13.3721915,9.19338167 C13.3721915,9.42417094 13.5592832,9.61126265 13.7900725,9.61126265 C14.0208618,9.61126265 14.2079535,9.42417094 14.2079535,9.19338167 L14.2079535,0.83576197 L14.2079535,0.83576197 Z" id="Combined-Shape"></path>
                                                    </g>
                                                </g>
                                            </g>
                                        </g>
                                    </g>
                                </g>
                                <g id="raml-file" transform="translate(88.688480, 51.672367) rotate(-31.000000) translate(-88.688480, -51.672367) translate(60.188480, 15.672367)">
                                    <mask id="mask-21" fill="white">
                                        <use xlink:href="#path-19"></use>
                                    </mask>
                                    <g id="Rectangle-3" stroke="#2E3748" mask="url(#mask-20)" stroke-width="2" fill="#EAF0F9">
                                        <use mask="url(#mask-22)" xlink:href="#path-19"></use>
                                    </g>
                                    <g id="Rectangle-4" mask="url(#mask-21)" stroke-width="2" stroke="#2E3748">
                                        <use mask="url(#mask-24)" xlink:href="#path-23"></use>
                                    </g>
                                    <g id="raml-square-logo" mask="url(#mask-21)">
                                        <g transform="translate(10.500000, 40.732220)" id="raml-squared">
                                            <g>
                                                <g id="Page-1" fill="#2E3748">
                                                    <g id="raml-squared">
                                                        <g id="raml-logo">
                                                            <path d="M5.47163003,0.130695467 L5.68434189e-14,0.130695467 L0.545583435,1.00643132 L5.44070358,1.00643132 C6.03855547,1.00643132 6.60152388,1.24633429 7.0258179,1.68196422 C7.44844154,2.11582647 7.68116023,2.68800632 7.68116023,3.29307493 C7.68116023,3.8876347 7.4585125,4.42306609 7.03725112,4.84142456 C6.63611545,5.23986816 6.07699054,5.50184291 5.46201315,5.57973475 L4.86291253,5.57973475 L3.21059358,5.56653385 L3.68751284,6.39241762 L4.41187613,6.39241762 L4.45117072,6.45548682 L4.45692787,6.45548682 L6.59017175,10.0571289 L6.60006432,10.0738814 L6.61384905,10.0876661 C6.70679058,10.1805428 6.82329588,10.225708 6.96996542,10.225708 C7.22094482,10.225708 7.4329702,10.0065795 7.4329702,9.74723193 C7.4329702,9.64434918 7.39941655,9.59775679 7.358857,9.55158605 C7.34236398,9.53280638 7.32188149,9.50942099 7.29087395,9.45663358 L5.52736899,6.4550003 C6.34730101,6.4407777 7.11404018,6.11406336 7.69165284,5.5313098 C8.28204476,4.93567969 8.60718602,4.14077101 8.60718602,3.29307493 C8.60718602,1.54932268 7.20057586,0.130695467 5.47163003,0.130695467 L5.47163003,0.130695467 L5.47163003,0.130695467 L5.47163003,0.130695467 Z" id="Shape"></path>
                                                            <path d="M12.8363415,0.219696177 C12.7662177,0.0840544243 12.6142451,0 12.4382385,0 C12.2787572,0 12.1201193,0.0859680693 12.0434113,0.213922807 L11.9957324,0.29671228 C11.9330848,0.405514351 11.9681467,0.563406281 12.0306483,0.671592093 L12.7798403,1.96782711 L15.647713,6.95152631 L15.522872,6.95152631 L15.5267318,6.95830516 L11.8366404,6.95830516 L12.3700121,7.88997458 L16.1875718,7.88997458 L17.3409159,9.88606849 L17.343689,9.890658 C17.4148507,10.0044712 17.5339183,10.1949276 17.7832436,10.1949276 C18.0386503,10.1949276 18.246443,9.98716733 18.246443,9.73180925 C18.246443,9.64400862 18.2244036,9.56906833 18.1771787,9.49649578 L12.8363415,0.219696177 L12.8363415,0.219696177 L12.8363415,0.219696177 L12.8363415,0.219696177 Z" id="Shape"></path>
                                                            <path d="M35.2799269,9.26883689 L30.3564264,9.26883689 L30.3564264,0.462907484 C30.3564264,0.207662918 30.1487311,1.13686838e-13 29.8934379,1.13686838e-13 C29.6381609,1.13686838e-13 29.4304169,0.207662918 29.4304169,0.462907484 L29.4304169,9.73180925 C29.4304169,9.98716733 29.6381446,10.1949276 29.8934379,10.1949276 L35.8150339,10.1949276 L35.2799269,9.26883689 L35.2799269,9.26883689 L35.2799269,9.26883689 L35.2799269,9.26883689 Z" id="Shape"></path>
                                                            <path d="M25.6161007,0.451604004 C25.6100516,0.201581419 25.4049024,0 25.1533716,0 C25.1416465,0 25.1302457,0.00056760657 25.1190071,0.00145955975 C25.107509,0.00056760657 25.095946,0 25.0843831,0 C24.9081494,0 24.7560146,0.0842165976 24.6860692,0.220117828 L21.6288267,5.59347083 L18.5716653,0.22010161 C18.5016713,0.0842003803 18.3495365,0 18.1733677,0 C18.0138864,0 17.8552161,0.0859680693 17.7785568,0.213922807 L17.7308454,0.296744715 C17.6683924,0.405190004 17.7027732,0.563000848 17.7644801,0.671283964 L21.1732819,6.65223548 L21.1765092,6.65761963 C21.2477032,6.77143286 21.3668033,6.96188919 21.6161123,6.96188919 C21.6203937,6.96188919 21.6245778,6.96169458 21.6288429,6.96154862 C21.6330919,6.96171079 21.6373084,6.96188919 21.6415898,6.96188919 C21.8908988,6.96188919 22.0100151,6.77143286 22.0811605,6.65761963 L24.6903182,2.08000238 L24.6903182,9.7318579 C24.6903182,9.98721598 24.8980622,10.1949762 25.1533392,10.1949762 C25.4086324,10.1949762 25.6163764,9.98721598 25.6163764,9.7318579 L25.6163764,0.462907484 C25.6163764,0.460474884 25.616198,0.458058502 25.6161656,0.455625902 L25.6172684,0.45369604 L25.6161007,0.451604004 L25.6161007,0.451604004 L25.6161007,0.451604004 L25.6161007,0.451604004 Z" id="Shape"></path>
                                                        </g>
                                                    </g>
                                                </g>
                                            </g>
                                        </g>
                                    </g>
                                </g>
                                <g id="paw-file" transform="translate(118.500000, 0.403342)">
                                    <mask id="mask-27" fill="white">
                                        <use xlink:href="#path-25"></use>
                                    </mask>
                                    <g id="Rectangle-3" stroke="#2E3748" mask="url(#mask-26)" stroke-width="2" fill="#EAF0F9">
                                        <use mask="url(#mask-28)" xlink:href="#path-25"></use>
                                    </g>
                                    <g id="Rectangle-4" mask="url(#mask-27)" stroke-width="2" stroke="#2E3748">
                                        <use mask="url(#mask-30)" xlink:href="#path-29"></use>
                                    </g>
                                    <g id="paw-square-logo" mask="url(#mask-27)">
                                        <g transform="translate(15.000000, 26.809634)" id="paw-squared">
                                            <g>
                                                <g id="Page-1" fill="#2E3748">
                                                    <g id="paw-squared">
                                                        <g id="paw-footer-icon">
                                                            <path d="M26.6985437,27.9441609 C26.3087974,26.4298489 25.448375,26.6204989 24.8787619,26.6887056 C24.6543939,26.7156185 24.4606591,26.7390388 24.349717,26.6802824 C23.9285095,26.3427415 22.7027648,23.5088765 21.8073625,20.5673599 C21.0181419,17.9750945 22.8729036,15.6536015 22.8729036,11.4182121 C22.8729036,3.70222669 16.7027834,0.0934349569 16.7027834,0.0934349569 C16.7027834,0.0934349569 17.774948,3.84726863 17.3527056,5.35007585 C17.3527056,5.35007585 16.4691013,3.10213101 15.0262329,2.2731731 C15.4379192,6.98169511 13.9346122,7.94665553 9.85562668,8.78095493 C11.3843924,9.91540489 12.8624477,10.2640397 15.7291423,10.2640397 C21.3857411,10.2640397 23.5549078,14.7510954 19.075413,20.3481534 C20.4460449,23.4940847 22.9521775,27.61833 23.2498171,27.9279309 C23.9442402,28.6498536 25.5218536,28.6145175 26.5213675,28.2636229 C26.6590102,28.2153441 26.7329027,28.0770817 26.6985437,27.9441609" id="Fill-1"></path>
                                                            <path d="M5.35800029,27.7185856 C5.95783283,28.8723471 7.83867422,28.7145678 10.8577072,28.3612079 C12.295815,28.1931563 13.9313833,28.0020954 15.6087618,28.0201742 C13.3205807,20.7165107 15.9502813,19.682111 17.7125222,16.7792175 C20.0994336,12.8474711 17.4546234,11.6170798 15.7544768,11.6170798 C14.7371624,19.1081064 3.25982827,14.3615776 5.35800029,27.7185856" id="Fill-3"></path>
                                                            <path d="M4.81815101,35.96155 C6.55617511,35.96155 8.61522761,35.6687953 10.7949504,35.3591944 C15.4197463,34.701986 20.6073249,33.9648605 25.3503073,35.5017711 C21.9696776,28.4306677 15.916088,29.1388258 10.9998621,29.713652 C8.12716512,30.049755 5.62186038,30.3427151 4.48449673,28.7624563 C2.1507797,28.8964044 0.304504243,30.4228375 0.304504243,32.2798263 C0.304504243,34.2754886 2.37142204,35.96155 4.81815101,35.96155" id="Fill-5"></path>
                                                        </g>
                                                    </g>
                                                </g>
                                            </g>
                                        </g>
                                    </g>
                                </g>
                                <path d="M186.125195,136.574377 C182.424163,154.550818 166.562597,168.297508 147,168.297508 C131.667153,168.297508 118.449182,159.838006 112.104556,147.148754 C95.7142714,145.033879 83.5537379,131.815907 83.5537379,115.425623 C83.5537379,97.9779009 97.8291468,83.7024919 115.276869,83.7024919 L184.01032,83.7024919 C198.814447,83.7024919 210.446262,95.3343066 210.446262,110.138434 C210.446262,123.885125 199.343166,135.516939 186.125195,136.574377 L186.125195,136.574377 Z M157.574377,120.712811 L157.574377,99.5640574 L136.425623,99.5640574 L136.425623,120.712811 L120.564057,120.712811 L147,147.148754 L173.435943,120.712811 L157.574377,120.712811 L157.574377,120.712811 Z" id="Shape" fill="#737786" transform="translate(147.000000, 126.000000) scale(1, -1) translate(-147.000000, -126.000000) "></path>
                            </g>
                        </g>
                    </g>
                </g>
            </g>
        </g>
    </g>
</svg>